<?xml version="1.0" encoding="UTF-8"?>
<svg width="948px" height="143px" viewBox="0 0 948 143" version="1.1" xmlns="http://www.w3.org/2000/svg" xmlns:xlink="http://www.w3.org/1999/xlink">
    <!-- Generator: Sketch 51.3 (57544) - http://www.bohemiancoding.com/sketch -->
    <title>Group 7</title>
    <desc>Created with Sketch.</desc>
    <defs></defs>
    <g id="Assets" stroke="none" stroke-width="1" fill="none" fill-rule="evenodd" stroke-linecap="round" stroke-linejoin="round">
        <g id="Group-7" transform="translate(2.000000, 1.000000)">
            <path d="M143.941924,27 C145.938304,27 147.594367,27.6288121 148.910163,28.8864551 C150.225959,30.1440982 150.883848,31.8059587 150.883848,33.8720866 L150.883848,60.4774868 C154.059907,56.614726 157.916493,53.605411 162.453721,51.4494515 C166.990948,49.293492 171.891081,48.2155284 177.154265,48.2155284 C183.687873,48.2155284 189.608866,49.8324738 194.917423,53.066413 C200.225979,56.3003523 204.400166,60.7694097 207.440109,66.4737192 C210.480051,72.1780287 212,78.5335224 212,85.5403908 C212,92.5472592 210.366623,98.9027528 207.099819,104.607062 C203.833015,110.311372 199.318541,114.802887 193.556261,118.081742 C187.793982,121.360597 181.419273,123 174.431942,123 C167.444611,123 161.115273,121.360597 155.443739,118.081742 C149.772204,114.802887 145.280416,110.311372 141.96824,104.607062 C138.656063,98.9027528 137,92.5472592 137,85.5403908 L137,33.8720866 C137,31.8059587 137.635202,30.1440982 138.905626,28.8864551 C140.17605,27.6288121 141.854799,27 143.941924,27 Z M174.430986,110 C179.031948,110 183.195756,108.911122 186.922535,106.733333 C190.649314,104.555545 193.593886,101.555575 195.756338,97.7333333 C197.91879,93.911092 199,89.644468 199,84.9333333 C199,80.2221987 197.91879,75.9777967 195.756338,72.2 C193.593886,68.4222033 190.649314,65.4444553 186.922535,63.2666667 C183.195756,61.088878 179.031948,60 174.430986,60 C169.830024,60 165.666216,61.088878 161.939437,63.2666667 C158.212657,65.4444553 155.29109,68.4222033 153.174648,72.2 C151.058205,75.9777967 150,80.2221987 150,84.9333333 C150,89.644468 151.058205,93.911092 153.174648,97.7333333 C155.29109,101.555575 158.212657,104.555545 161.939437,106.733333 C165.666216,108.911122 169.830024,110 174.430986,110 Z M231,33.7048029 C231,31.7380509 231.636357,30.1289143 232.909091,28.8773448 C234.181825,27.6257754 235.818172,27 237.818182,27 C239.818192,27 241.454539,27.6257754 242.727273,28.8773448 C244.000006,30.1289143 244.636364,31.7380509 244.636364,33.7048029 L244.636364,97.1922291 C244.636364,100.499948 245.272721,103.226541 246.545455,105.372089 C247.818188,107.517636 249.454535,108.590394 251.454545,108.590394 L254.863636,108.590394 C256.681827,108.590394 258.159085,109.216169 259.295455,110.467739 C260.431824,111.719308 261,113.328445 261,115.295197 C261,117.261949 260.136372,118.871086 258.409091,120.122655 C256.68181,121.374225 254.454559,122 251.727273,122 L251.454545,122 C247.545435,122 244.022743,120.949591 240.886364,118.848743 C237.749984,116.747894 235.31819,113.79781 233.590909,109.998403 C231.863628,106.198995 231,101.930314 231,97.1922291 L231,33.7048029 Z M303.568058,48 C310.736878,48 317.156959,49.5990831 322.828494,52.7972973 C328.500028,55.9955115 332.946445,60.4324041 336.167877,66.1081081 C339.389308,71.7838122 341,78.2702338 341,85.5675676 C341,92.7748108 339.411994,99.2161878 336.235935,104.891892 C333.059875,110.567596 328.636145,115.004489 322.96461,118.202703 C317.293075,121.400917 310.827623,123 303.568058,123 C296.308494,123 289.820355,121.400917 284.103448,118.202703 C278.386541,115.004489 273.940125,110.567596 270.764065,104.891892 C267.588006,99.2161878 266,92.7748108 266,85.5675676 C266,78.2702338 267.588006,71.7838122 270.764065,66.1081081 C273.940125,60.4324041 278.386541,55.9955115 284.103448,52.7972973 C289.820355,49.5990831 296.308494,48 303.568058,48 Z M304.569014,60 C299.876033,60 295.666216,61.066656 291.939437,63.2 C288.212657,65.333344 285.29109,68.311092 283.174648,72.1333333 C281.058205,75.9555747 280,80.2666427 280,85.0666667 C280,89.8666907 281.058205,94.1555367 283.174648,97.9333333 C285.29109,101.71113 288.212657,104.666656 291.939437,106.8 C295.666216,108.933344 299.876033,110 304.569014,110 C309.261995,110 313.471812,108.933344 317.198592,106.8 C320.925371,104.666656 323.823933,101.71113 325.894366,97.9333333 C327.964799,94.1555367 329,89.8666907 329,85.0666667 C329,80.2666427 327.964799,75.9555747 325.894366,72.1333333 C323.823933,68.311092 320.925371,65.333344 317.198592,63.2 C313.471812,61.066656 309.261995,60 304.569014,60 Z M395.928721,48 C406.648551,48 415.551327,52.0540135 422.637317,60.1621622 C423.545777,61.1531581 424,62.3243176 424,63.6756757 C424,65.6576676 423.000709,67.3243176 421.002096,68.6756757 C420.093636,69.3063095 419.048923,69.6216216 417.867925,69.6216216 C415.778466,69.6216216 414.006995,68.8108189 412.553459,67.1891892 C410.282309,64.7567446 407.806792,62.9774831 405.126834,61.8513514 C402.446877,60.7252196 399.38087,60.1621622 395.928721,60.1621622 C388.933578,60.1621622 383.255787,62.4819588 378.895178,67.1216216 C374.534569,71.7612845 372.354298,77.9098716 372.354298,85.5675676 C372.354298,90.4324568 373.3763,94.7792601 375.420335,98.6081081 C377.464371,102.436956 380.325977,105.432422 384.005241,107.594595 C387.684505,109.756768 391.88607,110.837838 396.610063,110.837838 C402.787592,110.837838 407.784048,109.261277 411.599581,106.108108 C413.325655,104.846841 415.006281,104.216216 416.641509,104.216216 C417.913354,104.216216 419.094334,104.621618 420.184486,105.432432 C421.910561,106.873881 422.773585,108.495486 422.773585,110.297297 C422.773585,111.648655 422.228517,112.864859 421.138365,113.945946 C414.597452,119.982012 406.421433,123 396.610063,123 C389.433228,123 382.983257,121.378395 377.259958,118.135135 C371.536659,114.891876 367.06256,110.409939 363.837526,104.689189 C360.612493,98.9684399 359,92.5946297 359,85.5675676 C359,78.3603243 360.56707,71.896425 363.701258,66.1756757 C366.835445,60.4549264 371.2187,55.9955115 376.851153,52.7972973 C382.483606,49.5990831 388.842732,48 395.928721,48 Z M501.495283,112.39964 C502.498433,113.473099 503,114.814903 503,116.425093 C503,118.393102 502.179253,120.047994 500.537736,121.389819 C499.169804,122.463278 497.7107,123 496.160377,123 C494.154078,123 492.512585,122.194917 491.235849,120.584728 L465.245283,89.0520102 L458.40566,94.9560084 L458.40566,115.48582 C458.40566,117.45383 457.7901,119.041632 456.558962,120.249274 C455.327824,121.456916 453.70913,122.060728 451.70283,122.060728 C449.696531,122.060728 448.077836,121.456916 446.846698,120.249274 C445.61556,119.041632 445,117.45383 445,115.48582 L445,33.5749071 C445,31.6068979 445.61556,30.019096 446.846698,28.811454 C448.077836,27.603812 449.696531,27 451.70283,27 C453.70913,27 455.327824,27.603812 456.558962,28.811454 C457.7901,30.019096 458.40566,31.6068979 458.40566,33.5749071 L458.40566,78.4516497 L491.646226,49.3342038 C492.831767,48.1712893 494.245275,47.5898407 495.886792,47.5898407 C497.801896,47.5898407 499.352195,48.3054697 500.537736,49.7367492 C501.723276,50.8996637 502.316038,52.2861949 502.316038,53.8963843 C502.316038,55.7749386 501.586485,57.2956502 500.127358,58.4585648 L474.957547,80.4643764 L501.495283,112.39964 Z M560.11501,48 C566.391844,48 572.031814,49.3381421 577.035088,52.0144665 C582.038362,54.690791 585.949953,58.5937055 588.769981,63.7233273 C591.590008,68.8529491 593,75.0307053 593,82.2567812 L593,115.175407 C593,117.138045 592.340487,118.766118 591.021442,120.059675 C589.702398,121.353231 588.042245,122 586.040936,122 C584.039626,122 582.379474,121.353231 581.060429,120.059675 C579.741384,118.766118 579.081871,117.138045 579.081871,115.175407 L579.081871,82.2567812 C579.081871,75.0307053 577.103334,69.5666249 573.146199,65.8643761 C569.189064,62.1621274 563.935705,60.3110307 557.385965,60.3110307 C553.565283,60.3110307 550.085786,61.0693113 546.947368,62.5858951 C543.808951,64.102479 541.352835,66.1542969 539.578947,68.7414105 C537.805059,71.3285241 536.918129,74.227832 536.918129,77.4394213 L536.918129,115.175407 C536.918129,117.138045 536.281358,118.766118 535.007797,120.059675 C533.734237,121.353231 532.051342,122 529.959064,122 C527.957755,122 526.297602,121.353231 524.978558,120.059675 C523.659513,118.766118 523,117.138045 523,115.175407 L523,55.4936709 C523,53.4418222 523.659513,51.7914469 524.978558,50.5424955 C526.297602,49.2935441 527.957755,48.6690778 529.959064,48.6690778 C532.051342,48.6690778 533.734237,49.2935441 535.007797,50.5424955 C536.281358,51.7914469 536.918129,53.4418222 536.918129,55.4936709 L536.918129,56.965642 C539.829124,54.1108959 543.28588,51.9029614 547.288499,50.3417722 C551.291118,48.7805829 555.566579,48 560.11501,48 Z M650.568058,48 C657.555389,48 663.884727,49.6441277 669.556261,52.9324324 C675.227796,56.2207372 679.719584,60.7251966 683.03176,66.4459459 C686.343937,72.1666953 688,78.5405054 688,85.5675676 L688,115.702703 C688,117.684695 687.342112,119.328822 686.026316,120.635135 C684.71052,121.941448 683.054456,122.594595 681.058076,122.594595 C679.061696,122.594595 677.405633,121.941448 676.089837,120.635135 C674.774041,119.328822 674.116152,117.684695 674.116152,115.702703 L674.116152,110.702703 C670.940093,114.576596 667.083507,117.594584 662.546279,119.756757 C658.009052,121.91893 653.108919,123 647.845735,123 C641.312127,123 635.391134,121.378395 630.082577,118.135135 C624.774021,114.891876 620.599834,110.409939 617.559891,104.689189 C614.519949,98.9684399 613,92.5946297 613,85.5675676 C613,78.5405054 614.633377,72.1666953 617.900181,66.4459459 C621.166985,60.7251966 625.681459,56.2207372 631.443739,52.9324324 C637.206018,49.6441277 643.580727,48 650.568058,48 Z M650.569014,110 C655.169976,110 659.333784,108.911122 663.060563,106.733333 C666.787343,104.555545 669.70891,101.577797 671.825352,97.8 C673.941795,94.0222033 675,89.7778013 675,85.0666667 C675,80.355532 673.941795,76.088908 671.825352,72.2666667 C669.70891,68.4444253 666.787343,65.4444553 663.060563,63.2666667 C659.333784,61.088878 655.169976,60 650.569014,60 C645.968052,60 641.804244,61.088878 638.077465,63.2666667 C634.350686,65.4444553 631.406114,68.4444253 629.243662,72.2666667 C627.08121,76.088908 626,80.355532 626,85.0666667 C626,89.7778013 627.08121,94.0222033 629.243662,97.8 C631.406114,101.577797 634.350686,104.555545 638.077465,106.733333 C641.804244,108.911122 645.968052,110 650.569014,110 Z M740.15896,108.590394 C741.789025,108.590394 743.170033,109.216169 744.302023,110.467739 C745.434013,111.719308 746,113.328445 746,115.295197 C746,117.261949 745.252898,118.871086 743.758671,120.122655 C742.264443,121.374225 740.340089,122 737.985549,122 L735.540462,122 C731.103061,122 727.050596,120.860195 723.382948,118.58055 C719.7153,116.300906 716.840087,113.194378 714.757225,109.260874 C712.674363,105.32737 711.632948,100.902245 711.632948,95.9853646 L711.632948,60.1817169 L705.384393,60.1817169 C703.482649,60.1817169 701.943166,59.645338 700.765896,58.5725642 C699.588626,57.4997903 699,56.1588432 699,54.5496824 C699,52.761726 699.588626,51.3313824 700.765896,50.2586085 C701.943166,49.1858347 703.482649,48.6494558 705.384393,48.6494558 L711.632948,48.6494558 L711.632948,33.7048029 C711.632948,31.7380509 712.266853,30.1289143 713.534682,28.8773448 C714.802511,27.6257754 716.432553,27 718.424855,27 C720.417158,27 722.0472,27.6257754 723.315029,28.8773448 C724.582858,30.1289143 725.216763,31.7380509 725.216763,33.7048029 L725.216763,48.6494558 L736.763006,48.6494558 C738.664749,48.6494558 740.204233,49.1858347 741.381503,50.2586085 C742.558773,51.3313824 743.147399,52.761726 743.147399,54.5496824 C743.147399,56.1588432 742.558773,57.4997903 741.381503,58.5725642 C740.204233,59.645338 738.664749,60.1817169 736.763006,60.1817169 L725.216763,60.1817169 L725.216763,95.9853646 C725.216763,99.5612774 726.212899,102.556059 728.205202,104.969801 C730.197505,107.383542 732.642567,108.590394 735.540462,108.590394 L740.15896,108.590394 Z M765,55.8994516 C765,53.8250963 765.663392,52.1566181 766.990196,50.8939671 C768.317,49.6313161 769.986918,49 772,49 C774.104586,49 775.797379,49.6313161 777.078431,50.8939671 C778.359484,52.1566181 779,53.8250963 779,55.8994516 L779,116.100548 C779,118.084714 778.359484,119.730646 777.078431,121.038391 C775.797379,122.346137 774.104586,123 772,123 C769.986918,123 768.317,122.346137 766.990196,121.038391 C765.663392,119.730646 765,118.084714 765,116.100548 L765,55.8994516 Z M772,18 C774.454558,18 776.568173,18.8863548 778.340909,20.6590909 C780.113645,22.431827 781,24.5454423 781,27 C781,29.4545577 780.113645,31.568173 778.340909,33.3409091 C776.568173,35.1136452 774.454558,36 772,36 C769.545442,36 767.431827,35.1136452 765.659091,33.3409091 C763.886355,31.568173 763,29.4545577 763,27 C763,24.5454423 763.886355,22.431827 765.659091,20.6590909 C767.431827,18.8863548 769.545442,18 772,18 Z M863.311195,49.6709559 C864.495262,50.2077233 865.406069,50.9457674 866.043643,51.8851103 C866.681218,52.8244532 867,53.8756069 867,55.0386029 C867,55.843754 866.772298,56.693623 866.316888,57.5882353 L837.352941,117.571691 C835.98671,120.523912 833.891855,122 831.068311,122 C829.519916,122 828.244787,121.664525 827.242884,120.993566 C826.240982,120.322607 825.330175,119.181993 824.510436,117.571691 L795.54649,57.5882353 C795.182161,56.8725454 795,56.0674064 795,55.1727941 C795,52.7573409 796.27513,50.9234131 798.825427,49.6709559 C799.645165,49.2236497 800.601513,49 801.694497,49 C802.787482,49 803.83491,49.2907446 804.836812,49.8722426 C805.838715,50.4537407 806.6129,51.2812446 807.159393,52.3547794 L830.931689,102.676471 L854.43074,52.3547794 C854.977232,51.2812446 855.774188,50.4537407 856.821632,49.8722426 C857.869075,49.2907446 858.984814,49 860.16888,49 C861.352947,49 862.400375,49.2236497 863.311195,49.6709559 Z M945,84.3513514 C945,86.0630716 944.407199,87.4819764 943.22158,88.6081081 C942.035961,89.7342399 940.531159,90.2972973 938.707129,90.2972973 L886.722543,90.2972973 C887.72576,96.6036351 890.621363,101.693674 895.409441,105.567568 C900.197519,109.441461 906.057127,111.378378 912.988439,111.378378 C915.724484,111.378378 918.574487,110.882888 921.538536,109.891892 C924.502584,108.900896 926.942187,107.684692 928.857418,106.243243 C930.134239,105.252247 931.639041,104.756757 933.371869,104.756757 C935.104697,104.756757 936.472699,105.207203 937.475915,106.108108 C939.117542,107.459466 939.938343,108.990982 939.938343,110.702703 C939.938343,112.324332 939.208742,113.67567 937.749518,114.756757 C934.648668,117.189201 930.795463,119.171164 926.189788,120.702703 C921.584113,122.234242 917.183708,123 912.988439,123 C905.509918,123 898.806709,121.400917 892.878613,118.202703 C886.950516,115.004489 882.32211,110.567596 878.993256,104.891892 C875.664402,99.2161878 874,92.7748108 874,85.5675676 C874,78.3603243 875.573202,71.896425 878.719653,66.1756757 C881.866104,60.4549264 886.24371,55.9955115 891.852601,52.7972973 C897.461492,49.5990831 903.8227,48 910.936416,48 C917.95893,48 924.023738,49.5315162 929.131021,52.5945946 C934.238304,55.657673 938.159909,59.9369095 940.895954,65.4324324 C943.631998,70.9279554 945,77.2341986 945,84.3513514 Z M911.312312,60 C904.589556,60 899.133154,61.8140408 894.942943,65.4421769 C890.752732,69.0703129 888.105111,73.9228721 887,80 L933,80 C932.171167,73.9228721 929.868888,69.0703129 926.093093,65.4421769 C922.317298,61.8140408 917.390421,60 911.312312,60 Z" id="comfortaa" stroke="#3B4043" stroke-width="1.13558743" fill="#3C4043"></path>
            <g id="line-logo" stroke="#000000" stroke-width="3">
                <path d="M1.4902102,27.7964794 L47.3438839,1.15698977 C47.9650586,0.796107469 48.7320658,0.796104023 49.3532438,1.15698074 L71.2734953,13.8916689 C71.8934484,14.251834 72.2731781,14.9162998 72.2687855,15.6332666 L72.1036633,42.5852199 L95.035662,55.907688 C95.6518298,56.265654 96.0309898,56.9244304 96.0309898,57.6370329 L96.0309898,110.938646 C96.0309898,111.651254 95.6518249,112.310033 95.0356507,112.667998 L49.1837906,139.305482 C48.5616602,139.666907 47.7933413,139.666308 47.1717749,139.303915 L1.4875432,112.668504 C0.872889163,112.31014 0.494897959,111.652214 0.494897959,110.94072 L0.494897959,56.4849362 L0.494897959,29.5258153 C0.494897959,28.8132191 0.874051161,28.1544478 1.4902102,27.7964794 Z" id="Stroke-1"></path>
                <path d="M24.2471296,125.887106 L24.2471296,98.0866809 L0.494996939,84.2872482 L47.5201542,111.407958 C48.1414899,111.766299 48.9071419,111.764478 49.526766,111.403185 L96.0310888,84.2872482 L72.2759867,98.1879574 L72.2759867,71.5406471 C72.2759867,70.8269657 71.8956875,70.1673625 71.2780462,69.8097869 L48.2635378,56.4858298 L72.1037622,42.5851206 L25.4059069,69.5090893 C24.7959394,69.8607703 24.0453554,69.8631685 23.433153,69.5153926 L0.494996939,56.4848369" id="Stroke-3"></path>
            </g>
        </g>
    </g>
</svg>