<?xml version="1.0" encoding="utf-8"?>
<!-- Svg Vector Icons : http://www.onlinewebfonts.com/icon -->
<!DOCTYPE svg PUBLIC "-//W3C//DTD SVG 1.1//EN" "http://www.w3.org/Graphics/SVG/1.1/DTD/svg11.dtd">
<svg version="1.1" xmlns="http://www.w3.org/2000/svg" xmlns:xlink="http://www.w3.org/1999/xlink" x="0px" y="0px" viewBox="0 0 1000 1000" enable-background="new 0 0 1000 1000" xml:space="preserve">
<metadata> Svg Vector Icons : http://www.onlinewebfonts.com/icon </metadata>
<g><path d="M10,512.6c0,213.9,137.1,395.9,328.2,462.7c25.8,6.5,21.8-11.9,21.8-24.3v-84.9c-148.7,17.5-154.6-81-164.6-97.4c-20.2-34.5-67.8-43.2-53.6-59.6c33.8-17.5,68.3,4.4,108.3,63.4c28.9,42.8,85.3,35.6,113.8,28.4c6.2-25.8,19.6-48.7,38-66.6c-153.9-27.4-218.1-121.4-218.1-233.2c0-54.1,17.9-104,52.9-144.2c-22.3-66.4,2.1-123,5.3-131.4c63.6-5.8,129.7,45.5,134.8,49.6c36.1-9.7,77.4-15,123.6-15c46.4,0,87.9,5.3,124.2,15.2c12.3-9.4,73.7-53.4,132.8-48c3.2,8.4,27,63.9,6,129.2c35.5,40.3,53.6,90.5,53.6,144.8c0,112-64.6,206.1-219,233.3c25.8,25.4,41.7,60.7,41.7,99.8v123.2c0.9,9.8,0,19.6,16.5,19.6C850.4,911.9,990,728.6,990,512.7c0-270.7-219.4-490-490-490C229.3,22.6,10,241.9,10,512.6L10,512.6z"/></g>
</svg>