<?xml version="1.0" encoding="iso-8859-1"?>
<!-- Generator: Adobe Illustrator 18.0.0, SVG Export Plug-In . SVG Version: 6.00 Build 0)  -->
<!DOCTYPE svg PUBLIC "-//W3C//DTD SVG 1.1//EN" "http://www.w3.org/Graphics/SVG/1.1/DTD/svg11.dtd">
<svg version="1.1" id="Capa_1" xmlns="http://www.w3.org/2000/svg" xmlns:xlink="http://www.w3.org/1999/xlink" x="0px" y="0px"
	 viewBox="0 0 478.613 478.613" style="enable-background:new 0 0 478.613 478.613;" xml:space="preserve">
<g id="XMLID_122_">
	<g>
		<path fill='#445e69' d="M427.501,200.695c1.776-11.238,2.884-23.56,3.163-37.377c-0.107-59.246-28.468-80.21-33.925-90.038
			c8.037-44.89-1.331-65.309-5.688-72.299c-16.07-5.704-55.91,14.722-77.678,29.101c-35.491-10.389-110.494-9.375-138.621,2.689
			C122.856-4.389,95.408,1.277,95.408,1.277s-17.745,31.82-4.691,78.371c-17.075,21.759-29.802,37.143-29.802,77.949
			c0,9.773,0.607,19.008,1.637,27.893c14.705,77.318,75.97,110.674,136.15,116.426c-9.056,6.881-19.928,19.903-21.432,34.992
			c-11.379,7.357-34.268,9.789-52.067,4.193c-24.939-7.88-34.486-57.266-71.833-50.221c-8.081,1.512-6.475,6.842,0.523,11.386
			c11.378,7.38,22.094,16.554,30.354,36.185c6.344,15.072,19.687,41.982,61.873,41.982c16.747,0,28.477-1.979,28.477-1.979
			s0.319,38.406,0.319,53.385c0,17.238-23.264,22.078-23.264,30.348c0,3.289,7.7,3.601,13.888,3.601
			c12.229,0,37.673-10.186,37.673-28.103c0-14.237,0.227-62.081,0.227-70.46c0-18.307,9.811-24.136,9.811-24.136
			s1.201,97.727-2.361,110.829c-4.177,15.408-11.744,13.219-11.744,20.076c0,10.233,30.589,2.502,40.735-19.897
			c7.849-17.495,4.334-113.331,4.334-113.331l8.183-0.178c0,0,0.094,43.892-0.188,63.944c-0.295,20.769-2.438,47.025,9.898,59.417
			c8.097,8.15,32.903,22.451,32.903,9.382c0-7.574-17.371-13.833-17.371-34.353V344.45c10.553,0,12.734,31.072,12.734,31.072
			l3.804,57.727c0,0-2.526,21.065,22.756,29.856c8.925,3.126,28.018,3.976,28.913-1.271c0.897-5.26-22.99-13.038-23.217-29.342
			c-0.123-9.93,0.445-15.742,0.445-58.934c0-43.168-5.799-59.137-26.007-71.863C355.669,295.681,416.536,269.51,427.501,200.695z"/>
	</g>
</g>
<g>
</g>
<g>
</g>
<g>
</g>
<g>
</g>
<g>
</g>
<g>
</g>
<g>
</g>
<g>
</g>
<g>
</g>
<g>
</g>
<g>
</g>
<g>
</g>
<g>
</g>
<g>
</g>
<g>
</g>
</svg>
