<svg width="240" height="88" viewBox="0 0 240 88" fill="none" xmlns="http://www.w3.org/2000/svg">
<path fill-rule="evenodd" clip-rule="evenodd" d="M191.697 34.4091C192.138 34.4091 192.518 34.5684 192.836 34.887C193.155 35.2056 193.314 35.5855 193.314 36.0266C193.314 36.4677 193.155 36.8476 192.836 37.1662C192.518 37.4848 192.138 37.644 191.697 37.644C191.255 37.644 190.875 37.4848 190.557 37.1662C190.238 36.8476 190.079 36.4677 190.079 36.0266C190.079 35.5855 190.238 35.2056 190.557 34.887C190.875 34.5684 191.255 34.4091 191.697 34.4091ZM80.1849 36.3587C79.9479 36.13 79.6497 36.0156 79.2902 36.0156C78.9144 36.0156 78.6121 36.13 78.3833 36.3587C78.1545 36.5875 78.0402 36.8897 78.0402 37.2655V46.6626C78.0402 47.937 78.3384 49.0929 78.9348 50.1304C79.5312 51.1679 80.3401 51.9848 81.3614 52.5811C82.3827 53.1774 83.5224 53.4756 84.7806 53.4756C86.0388 53.4756 87.1868 53.1774 88.2244 52.5811C89.262 51.9848 90.0749 51.1679 90.6632 50.1304C91.2515 49.0929 91.5456 47.937 91.5456 46.6626C91.5456 45.3883 91.2719 44.2324 90.7245 43.1949C90.1771 42.1574 89.4254 41.3446 88.4695 40.7564C87.5136 40.1683 86.4474 39.8742 85.2708 39.8742C84.3231 39.8742 83.4407 40.0702 82.6237 40.4624C81.8066 40.8545 81.1122 41.4018 80.5403 42.1043V37.2655C80.5403 36.8897 80.4218 36.5875 80.1849 36.3587ZM86.9989 50.6695C86.3371 51.0698 85.5977 51.27 84.7806 51.27C83.9636 51.27 83.2242 51.0698 82.5624 50.6695C81.9006 50.2693 81.3818 49.7179 81.006 49.0153C80.6301 48.3128 80.4422 47.5286 80.4422 46.6626C80.4422 45.7967 80.6301 45.0166 81.006 44.3222C81.3818 43.6278 81.9006 43.0805 82.5624 42.6802C83.2242 42.28 83.9636 42.0798 84.7806 42.0798C85.5977 42.0798 86.3371 42.28 86.9989 42.6802C87.6606 43.0805 88.1835 43.6278 88.5675 44.3222C88.9515 45.0166 89.1435 45.7967 89.1435 46.6626C89.1435 47.5286 88.9515 48.3128 88.5675 49.0153C88.1835 49.7179 87.6606 50.2693 86.9989 50.6695ZM94.781 37.241C94.781 36.8815 94.8954 36.5875 95.1242 36.3587C95.3529 36.13 95.6471 36.0156 96.0066 36.0156C96.3661 36.0156 96.6602 36.13 96.8889 36.3587C97.1177 36.5875 97.2321 36.8815 97.2321 37.241V48.8438C97.2321 49.4483 97.3465 49.9466 97.5752 50.3387C97.804 50.7308 98.0981 50.9269 98.4576 50.9269H99.0704C99.3972 50.9269 99.6627 51.0412 99.867 51.27C100.071 51.4987 100.173 51.7928 100.173 52.1522C100.173 52.5117 100.018 52.8057 99.7077 53.0345C99.3972 53.2632 98.9969 53.3776 98.5067 53.3776H98.4576C97.755 53.3776 97.1218 53.1856 96.5581 52.8017C95.9943 52.4177 95.5572 51.8786 95.2467 51.1842C94.9363 50.4898 94.781 49.7097 94.781 48.8438V37.241ZM111.436 40.7442C110.415 40.1642 109.259 39.8742 107.968 39.8742C106.661 39.8742 105.492 40.1642 104.463 40.7442C103.433 41.3242 102.633 42.1288 102.061 43.1581C101.489 44.1874 101.203 45.3638 101.203 46.6871C101.203 47.9942 101.489 49.1624 102.061 50.1917C102.633 51.221 103.433 52.0256 104.463 52.6056C105.492 53.1856 106.661 53.4756 107.968 53.4756C109.275 53.4756 110.439 53.1856 111.461 52.6056C112.482 52.0256 113.278 51.221 113.85 50.1917C114.422 49.1624 114.708 47.9942 114.708 46.6871C114.708 45.3638 114.418 44.1874 113.838 43.1581C113.258 42.1288 112.457 41.3242 111.436 40.7442ZM107.968 42.0798C107.134 42.0798 106.387 42.2759 105.725 42.668C105.063 43.0601 104.544 43.6074 104.169 44.31C103.793 45.0125 103.605 45.8049 103.605 46.6871C103.605 47.5694 103.793 48.3577 104.169 49.0521C104.544 49.7464 105.063 50.2897 105.725 50.6818C106.387 51.0739 107.134 51.27 107.968 51.27C108.801 51.27 109.549 51.0739 110.211 50.6818C110.872 50.2897 111.387 49.7464 111.755 49.0521C112.122 48.3577 112.306 47.5694 112.306 46.6871C112.306 45.8049 112.122 45.0125 111.755 44.31C111.387 43.6074 110.872 43.0601 110.211 42.668C109.549 42.2759 108.801 42.0798 107.968 42.0798ZM129.194 42.0798C127.92 40.6094 126.318 39.8742 124.39 39.8742C123.115 39.8742 121.972 40.1642 120.959 40.7442C119.945 41.3242 119.157 42.1329 118.593 43.1704C118.029 44.2079 117.748 45.3801 117.748 46.6871C117.748 47.9615 118.038 49.1174 118.618 50.1549C119.198 51.1924 120.003 52.0052 121.032 52.5933C122.062 53.1815 123.222 53.4756 124.513 53.4756C126.277 53.4756 127.748 52.9283 128.925 51.8336C129.121 51.6376 129.219 51.417 129.219 51.1719C129.219 50.8452 129.063 50.5511 128.753 50.2897C128.557 50.1426 128.344 50.0691 128.116 50.0691C127.822 50.0691 127.519 50.1835 127.209 50.4122C126.522 50.9841 125.624 51.27 124.513 51.27C123.663 51.27 122.907 51.0739 122.245 50.6818C121.584 50.2897 121.069 49.7464 120.701 49.0521C120.333 48.3577 120.15 47.5694 120.15 46.6871C120.15 45.2984 120.542 44.1834 121.326 43.3419C122.111 42.5005 123.132 42.0798 124.39 42.0798C125.011 42.0798 125.562 42.1819 126.045 42.3862C126.527 42.5904 126.972 42.9131 127.38 43.3542C127.642 43.6483 127.96 43.7953 128.336 43.7953C128.549 43.7953 128.737 43.7381 128.9 43.6238C129.26 43.3787 129.439 43.0764 129.439 42.717C129.439 42.4719 129.358 42.2595 129.194 42.0798ZM143.288 51.6131C143.468 51.8091 143.557 52.0542 143.557 52.3483C143.557 52.7077 143.41 53.01 143.116 53.255C142.871 53.4511 142.61 53.5491 142.332 53.5491C141.972 53.5491 141.678 53.4021 141.45 53.108L136.792 47.3488L135.567 48.4271V52.1767C135.567 52.5362 135.457 52.8262 135.236 53.0467C135.015 53.2673 134.725 53.3776 134.366 53.3776C134.006 53.3776 133.716 53.2673 133.496 53.0467C133.275 52.8262 133.165 52.5362 133.165 52.1767V37.2165C133.165 36.857 133.275 36.567 133.496 36.3465C133.716 36.1259 134.006 36.0156 134.366 36.0156C134.725 36.0156 135.015 36.1259 135.236 36.3465C135.457 36.567 135.567 36.857 135.567 37.2165V45.4128L141.523 40.0948C141.735 39.8824 141.989 39.7762 142.283 39.7762C142.626 39.7762 142.904 39.9069 143.116 40.1683C143.329 40.3807 143.435 40.6339 143.435 40.928C143.435 41.2711 143.304 41.5488 143.043 41.7612L138.533 45.7804L143.288 51.6131ZM156.818 40.5849C155.919 40.0947 154.906 39.8497 153.778 39.8497C152.961 39.8497 152.193 39.9926 151.474 40.2786C150.755 40.5645 150.135 40.9688 149.612 41.4917V41.2221C149.612 40.8463 149.497 40.544 149.268 40.3153C149.04 40.0866 148.737 39.9722 148.362 39.9722C148.002 39.9722 147.704 40.0866 147.467 40.3153C147.23 40.544 147.112 40.8463 147.112 41.2221V52.1522C147.112 52.5117 147.23 52.8098 147.467 53.0467C147.704 53.2836 148.002 53.4021 148.362 53.4021C148.737 53.4021 149.04 53.2836 149.268 53.0467C149.497 52.8098 149.612 52.5117 149.612 52.1522V45.2412C149.612 44.6531 149.771 44.1221 150.09 43.6483C150.408 43.1745 150.849 42.7987 151.413 42.5209C151.977 42.2432 152.602 42.1043 153.288 42.1043C154.465 42.1043 155.408 42.4433 156.119 43.1214C156.83 43.7994 157.185 44.8001 157.185 46.1235V52.1522C157.185 52.5117 157.304 52.8098 157.541 53.0467C157.778 53.2836 158.076 53.4021 158.435 53.4021C158.795 53.4021 159.093 53.2836 159.33 53.0467C159.567 52.8098 159.686 52.5117 159.686 52.1522V46.1235C159.686 44.8001 159.432 43.6687 158.926 42.7293C158.419 41.7898 157.717 41.075 156.818 40.5849ZM169.907 39.8742C171.165 39.8742 172.304 40.1724 173.326 40.7687C174.347 41.365 175.156 42.1819 175.752 43.2194C176.349 44.2569 176.647 45.4128 176.647 46.6871V52.1522C176.647 52.5117 176.529 52.8098 176.292 53.0467C176.055 53.2836 175.756 53.4021 175.397 53.4021C175.037 53.4021 174.739 53.2836 174.502 53.0467C174.265 52.8098 174.147 52.5117 174.147 52.1522V51.2455C173.575 51.948 172.881 52.4953 172.063 52.8874C171.246 53.2795 170.364 53.4756 169.416 53.4756C168.24 53.4756 167.174 53.1815 166.218 52.5933C165.262 52.0052 164.51 51.1924 163.963 50.1549C163.415 49.1174 163.142 47.9615 163.142 46.6871C163.142 45.4128 163.436 44.2569 164.024 43.2194C164.612 42.1819 165.425 41.365 166.463 40.7687C167.5 40.1724 168.648 39.8742 169.907 39.8742ZM172.125 50.6695C171.463 51.0698 170.724 51.27 169.907 51.27C169.09 51.27 168.35 51.0698 167.688 50.6695C167.027 50.2693 166.504 49.7219 166.12 49.0276C165.736 48.3332 165.544 47.5531 165.544 46.6871C165.544 45.8212 165.736 45.037 166.12 44.3345C166.504 43.6319 167.027 43.0805 167.688 42.6802C168.35 42.28 169.09 42.0798 169.907 42.0798C170.724 42.0798 171.463 42.28 172.125 42.6802C172.787 43.0805 173.305 43.6319 173.681 44.3345C174.057 45.037 174.245 45.8212 174.245 46.6871C174.245 47.5531 174.057 48.3332 173.681 49.0276C173.305 49.7219 172.787 50.2693 172.125 50.6695ZM186.084 50.9269C186.378 50.9269 186.627 51.0412 186.831 51.27C187.035 51.4987 187.138 51.7928 187.138 52.1522C187.138 52.5117 187.003 52.8057 186.733 53.0345C186.464 53.2632 186.116 53.3776 185.691 53.3776H185.25C184.45 53.3776 183.718 53.1693 183.057 52.7526C182.395 52.336 181.876 51.7683 181.5 51.0494C181.124 50.3305 180.936 49.5218 180.936 48.6232V42.0798H179.809C179.466 42.0798 179.188 41.9818 178.976 41.7857C178.763 41.5897 178.657 41.3446 178.657 41.0505C178.657 40.7238 178.763 40.4624 178.976 40.2663C179.188 40.0702 179.466 39.9722 179.809 39.9722H180.936V37.241C180.936 36.8815 181.051 36.5875 181.28 36.3587C181.508 36.13 181.802 36.0156 182.162 36.0156C182.521 36.0156 182.816 36.13 183.044 36.3587C183.273 36.5875 183.387 36.8815 183.387 37.241V39.9722H185.471C185.814 39.9722 186.092 40.0702 186.304 40.2663C186.517 40.4624 186.623 40.7238 186.623 41.0505C186.623 41.3446 186.517 41.5897 186.304 41.7857C186.092 41.9818 185.814 42.0798 185.471 42.0798H183.387V48.6232C183.387 49.2767 183.567 49.824 183.927 50.2652C184.286 50.7063 184.727 50.9269 185.25 50.9269H186.084ZM190.802 40.3153C190.565 40.544 190.447 40.8463 190.447 41.2221V52.1277C190.447 52.4872 190.565 52.7853 190.802 53.0222C191.039 53.2591 191.337 53.3776 191.697 53.3776C192.072 53.3776 192.375 53.2591 192.604 53.0222C192.832 52.7853 192.947 52.4872 192.947 52.1277V41.2221C192.947 40.8463 192.832 40.544 192.604 40.3153C192.375 40.0866 192.072 39.9722 191.697 39.9722C191.337 39.9722 191.039 40.0866 190.802 40.3153ZM208.413 40.5481C208.299 40.3766 208.135 40.2418 207.923 40.1438C207.759 40.0621 207.571 40.0212 207.359 40.0212C207.147 40.0212 206.946 40.0743 206.758 40.1805C206.571 40.2867 206.428 40.4379 206.33 40.6339L202.114 49.824L197.849 40.6339C197.751 40.4379 197.612 40.2867 197.432 40.1805C197.252 40.0743 197.064 40.0212 196.868 40.0212C196.672 40.0212 196.501 40.0621 196.354 40.1438C195.896 40.3725 195.667 40.7074 195.667 41.1486C195.667 41.3119 195.7 41.459 195.765 41.5897L200.962 52.5443C201.109 52.8384 201.272 53.0467 201.452 53.1693C201.632 53.2918 201.86 53.3531 202.138 53.3531C202.645 53.3531 203.021 53.0835 203.266 52.5443L208.462 41.5897C208.544 41.4263 208.585 41.2711 208.585 41.124C208.585 40.9117 208.527 40.7197 208.413 40.5481ZM222.58 46.4666C222.58 46.777 222.474 47.0343 222.262 47.2386C222.049 47.4428 221.779 47.5449 221.453 47.5449H212.139C212.318 48.6886 212.837 49.6117 213.695 50.3142C214.553 51.0167 215.603 51.368 216.845 51.368C217.335 51.368 217.846 51.2781 218.377 51.0984C218.908 50.9187 219.345 50.6981 219.688 50.4367C219.917 50.257 220.186 50.1671 220.497 50.1671C220.807 50.1671 221.052 50.2488 221.232 50.4122C221.526 50.6573 221.673 50.935 221.673 51.2455C221.673 51.5395 221.543 51.7846 221.281 51.9807C220.726 52.4218 220.035 52.7812 219.21 53.059C218.385 53.3367 217.596 53.4756 216.845 53.4756C215.505 53.4756 214.304 53.1856 213.242 52.6056C212.179 52.0256 211.35 51.221 210.754 50.1917C210.157 49.1624 209.859 47.9942 209.859 46.6871C209.859 45.3801 210.141 44.2079 210.705 43.1704C211.268 42.1329 212.053 41.3242 213.058 40.7442C214.063 40.1642 215.202 39.8742 216.477 39.8742C217.735 39.8742 218.822 40.1519 219.737 40.7074C220.652 41.2629 221.355 42.039 221.845 43.0356C222.335 44.0322 222.58 45.1759 222.58 46.4666ZM213.572 42.9621C214.316 42.3086 215.284 41.9818 216.477 41.9818C217.555 41.9818 218.43 42.3086 219.1 42.9621C219.77 43.6156 220.178 44.4897 220.325 45.5843H212.163C212.359 44.4897 212.829 43.6156 213.572 42.9621Z" fill="#1A1D26"/>
<path d="M192.836 34.887L193.128 34.5953V34.5953L192.836 34.887ZM192.836 37.1662L192.545 36.8745V36.8745L192.836 37.1662ZM190.557 37.1662L190.849 36.8745V36.8745L190.557 37.1662ZM190.557 34.887L190.265 34.5953V34.5953L190.557 34.887ZM80.1849 36.3587L79.8984 36.6555H79.8984L80.1849 36.3587ZM78.3833 36.3587L78.675 36.6504L78.3833 36.3587ZM78.9348 50.1304L79.2924 49.9248L78.9348 50.1304ZM90.7245 43.1949L91.0893 43.0024L90.7245 43.1949ZM82.6237 40.4624L82.8022 40.8342V40.8342L82.6237 40.4624ZM80.5403 42.1043H80.1278C80.1278 42.2789 80.2376 42.4345 80.4021 42.493C80.5665 42.5515 80.75 42.5001 80.8602 42.3648L80.5403 42.1043ZM86.9989 50.6695L86.7854 50.3166L86.9989 50.6695ZM82.5624 50.6695L82.7759 50.3166H82.7759L82.5624 50.6695ZM82.5624 42.6802L82.7759 43.0332L82.5624 42.6802ZM86.9989 42.6802L87.2123 42.3273V42.3273L86.9989 42.6802ZM95.1242 36.3587L95.4158 36.6504L95.4158 36.6504L95.1242 36.3587ZM96.8889 36.3587L97.1806 36.067L97.1806 36.067L96.8889 36.3587ZM97.5752 50.3387L97.219 50.5466V50.5466L97.5752 50.3387ZM99.867 51.27L100.175 50.9952L100.175 50.9952L99.867 51.27ZM95.2467 51.1842L94.8702 51.3526L95.2467 51.1842ZM111.436 40.7442L111.64 40.3855L111.436 40.7442ZM104.463 40.7442L104.26 40.3848V40.3848L104.463 40.7442ZM102.061 43.1581L101.7 42.9578V42.9578L102.061 43.1581ZM102.061 50.1917L101.7 50.392V50.392L102.061 50.1917ZM104.463 52.6056L104.26 52.965L104.463 52.6056ZM111.461 52.6056L111.257 52.2469L111.461 52.6056ZM113.85 50.1917L114.211 50.392V50.392L113.85 50.1917ZM113.838 43.1581L113.479 43.3607V43.3607L113.838 43.1581ZM104.169 44.31L103.805 44.1154L104.169 44.31ZM111.755 44.31L112.12 44.1187L111.755 44.31ZM129.194 42.0798L128.882 42.3501L128.889 42.3573L129.194 42.0798ZM120.959 40.7442L121.163 41.1022L120.959 40.7442ZM118.593 43.1704L118.231 42.9734V42.9734L118.593 43.1704ZM118.618 50.1549L118.978 49.9536L118.978 49.9536L118.618 50.1549ZM121.032 52.5933L121.237 52.2352H121.237L121.032 52.5933ZM128.925 51.8336L129.206 52.1356C129.209 52.1323 129.213 52.1288 129.216 52.1253L128.925 51.8336ZM128.753 50.2897L129.019 49.9741C129.013 49.9691 129.007 49.9643 129 49.9597L128.753 50.2897ZM127.209 50.4122L126.964 50.0801C126.957 50.085 126.951 50.0901 126.945 50.0953L127.209 50.4122ZM120.701 49.0521L121.066 48.8591V48.8591L120.701 49.0521ZM126.045 42.3862L125.884 42.766L126.045 42.3862ZM127.38 43.3542L127.689 43.0801L127.683 43.0739L127.38 43.3542ZM128.9 43.6238L128.668 43.2829L128.663 43.2858L128.9 43.6238ZM143.288 51.6131L142.968 51.8737C142.973 51.8799 142.978 51.8859 142.984 51.8918L143.288 51.6131ZM143.116 53.255L143.374 53.5772L143.38 53.5719L143.116 53.255ZM141.45 53.108L141.775 52.8547L141.77 52.8486L141.45 53.108ZM136.792 47.3488L137.113 47.0895C137.043 47.0021 136.939 46.9473 136.827 46.9378C136.715 46.9283 136.604 46.9649 136.52 47.0391L136.792 47.3488ZM135.567 48.4271L135.294 48.1175C135.205 48.1958 135.154 48.3086 135.154 48.4271H135.567ZM135.236 53.0467L134.944 52.755L134.944 52.755L135.236 53.0467ZM133.496 53.0467L133.204 53.3384L133.204 53.3384L133.496 53.0467ZM133.496 36.3465L133.204 36.0548L133.204 36.0548L133.496 36.3465ZM135.236 36.3465L134.944 36.6382L134.944 36.6382L135.236 36.3465ZM135.567 45.4128H135.154C135.154 45.5754 135.25 45.7228 135.398 45.7893C135.547 45.8557 135.72 45.8288 135.842 45.7205L135.567 45.4128ZM141.523 40.0948L141.798 40.4025C141.804 40.3973 141.809 40.3919 141.815 40.3865L141.523 40.0948ZM143.116 40.1683L142.796 40.4284C142.805 40.4394 142.815 40.45 142.825 40.46L143.116 40.1683ZM143.043 41.7612L142.783 41.4411C142.778 41.445 142.773 41.4491 142.768 41.4533L143.043 41.7612ZM138.533 45.7804L138.258 45.4724C138.093 45.6193 138.074 45.8699 138.213 46.041L138.533 45.7804ZM156.818 40.5849L157.015 40.2227V40.2227L156.818 40.5849ZM151.474 40.2786L151.322 39.8953L151.474 40.2786ZM149.612 41.4917H149.199C149.199 41.6585 149.3 41.8089 149.454 41.8727C149.608 41.9366 149.785 41.9013 149.903 41.7834L149.612 41.4917ZM149.268 40.3153L148.977 40.607V40.607L149.268 40.3153ZM149.268 53.0467L148.972 52.7602V52.7602L149.268 53.0467ZM151.413 42.5209L151.595 42.891V42.891L151.413 42.5209ZM157.541 53.0467L157.833 52.755V52.755L157.541 53.0467ZM158.926 42.7293L159.289 42.5335V42.5335L158.926 42.7293ZM173.326 40.7687L173.534 40.4125L173.326 40.7687ZM175.752 43.2194L176.11 43.0138V43.0138L175.752 43.2194ZM176.292 53.0467L176 52.755L176 52.755L176.292 53.0467ZM174.502 53.0467L174.794 52.755L174.794 52.755L174.502 53.0467ZM174.147 51.2455H174.559C174.559 51.0709 174.45 50.9153 174.285 50.8568C174.121 50.7983 173.937 50.8497 173.827 50.985L174.147 51.2455ZM172.063 52.8874L172.242 53.2593L172.063 52.8874ZM166.218 52.5933L166.434 52.242L166.218 52.5933ZM163.963 50.1549L164.327 49.9624V49.9624L163.963 50.1549ZM164.024 43.2194L163.665 43.0159V43.0159L164.024 43.2194ZM166.463 40.7687L166.668 41.1263V41.1263L166.463 40.7687ZM172.125 50.6695L171.911 50.3166V50.3166L172.125 50.6695ZM167.688 50.6695L167.902 50.3166L167.688 50.6695ZM166.12 49.0276L166.481 48.8279L166.12 49.0276ZM166.12 44.3345L166.482 44.5323V44.5323L166.12 44.3345ZM172.125 42.6802L171.911 43.0332V43.0332L172.125 42.6802ZM173.681 44.3345L173.317 44.529V44.5291L173.681 44.3345ZM173.681 49.0276L173.318 48.8312V48.8312L173.681 49.0276ZM186.831 51.27L186.524 51.5447V51.5447L186.831 51.27ZM186.733 53.0345L186.466 52.7199V52.7199L186.733 53.0345ZM183.057 52.7526L182.837 53.1017V53.1017L183.057 52.7526ZM181.5 51.0494L181.135 51.2405V51.2405L181.5 51.0494ZM180.936 42.0798H181.349C181.349 41.852 181.164 41.6673 180.936 41.6673V42.0798ZM178.976 41.7857L179.255 41.4826L179.255 41.4826L178.976 41.7857ZM178.976 40.2663L179.255 40.5694L179.255 40.5694L178.976 40.2663ZM180.936 39.9722V40.3847C181.164 40.3847 181.349 40.2 181.349 39.9722H180.936ZM183.387 39.9722H182.975C182.975 40.2 183.16 40.3847 183.387 40.3847V39.9722ZM186.304 40.2663L186.584 39.9632L186.584 39.9632L186.304 40.2663ZM186.304 41.7857L186.584 42.0889L186.584 42.0889L186.304 41.7857ZM183.387 42.0798V41.6673C183.16 41.6673 182.975 41.852 182.975 42.0798H183.387ZM183.927 50.2652L183.607 50.5258V50.5258L183.927 50.2652ZM190.802 53.0222L191.094 52.7305L191.094 52.7305L190.802 53.0222ZM192.604 53.0222L192.9 53.3088V53.3088L192.604 53.0222ZM192.604 40.3153L192.895 40.0236V40.0236L192.604 40.3153ZM207.923 40.1438L207.738 40.5129L207.75 40.5183L207.923 40.1438ZM208.413 40.5481L208.756 40.3193L208.756 40.3193L208.413 40.5481ZM206.758 40.1805L206.961 40.5397L206.961 40.5396L206.758 40.1805ZM206.33 40.6339L205.96 40.4493L205.955 40.4619L206.33 40.6339ZM202.114 49.824L201.74 49.9977C201.807 50.1437 201.954 50.2369 202.115 50.2365C202.275 50.2362 202.422 50.1423 202.489 49.996L202.114 49.824ZM197.849 40.6339L198.223 40.4602L198.218 40.4494L197.849 40.6339ZM197.432 40.1805L197.642 39.8254L197.642 39.8254L197.432 40.1805ZM196.354 40.1438L196.538 40.5127C196.543 40.5101 196.549 40.5073 196.554 40.5044L196.354 40.1438ZM195.765 41.5897L196.138 41.4129L196.134 41.4052L195.765 41.5897ZM200.962 52.5443L200.589 52.7212L200.593 52.7288L200.962 52.5443ZM201.452 53.1693L201.22 53.5101L201.22 53.5101L201.452 53.1693ZM203.266 52.5443L202.893 52.3675L202.89 52.3736L203.266 52.5443ZM208.462 41.5897L208.093 41.4051L208.089 41.4129L208.462 41.5897ZM212.139 47.5449V47.1324C212.018 47.1324 211.903 47.1852 211.825 47.2768C211.747 47.3685 211.712 47.4898 211.731 47.6089L212.139 47.5449ZM213.695 50.3142L213.956 49.9951L213.695 50.3142ZM218.377 51.0984L218.244 50.7077V50.7077L218.377 51.0984ZM219.688 50.4367L219.938 50.7649L219.943 50.7611L219.688 50.4367ZM221.232 50.4122L220.955 50.7175C220.959 50.7215 220.963 50.7253 220.968 50.7291L221.232 50.4122ZM221.281 51.9807L221.034 51.6505L221.025 51.6576L221.281 51.9807ZM213.242 52.6056L213.439 52.2436V52.2436L213.242 52.6056ZM210.754 50.1917L210.397 50.3985L210.397 50.3985L210.754 50.1917ZM210.705 43.1704L211.067 43.3673L210.705 43.1704ZM213.058 40.7442L212.852 40.3869L213.058 40.7442ZM221.845 43.0356L222.215 42.8535L221.845 43.0356ZM213.572 42.9621L213.3 42.6523V42.6523L213.572 42.9621ZM219.1 42.9621L219.388 42.6668V42.6668L219.1 42.9621ZM220.325 45.5843V45.9968C220.444 45.9968 220.557 45.9455 220.636 45.8559C220.714 45.7663 220.75 45.6473 220.734 45.5294L220.325 45.5843ZM212.163 45.5843L211.757 45.5116C211.736 45.6318 211.768 45.7554 211.847 45.8491C211.925 45.9427 212.041 45.9968 212.163 45.9968V45.5843ZM193.128 34.5953C192.734 34.2012 192.25 33.9966 191.697 33.9966V34.8216C192.026 34.8216 192.302 34.9356 192.545 35.1787L193.128 34.5953ZM193.727 36.0266C193.727 35.4734 193.522 34.9894 193.128 34.5953L192.545 35.1787C192.788 35.4218 192.902 35.6975 192.902 36.0266H193.727ZM193.128 37.4579C193.522 37.0638 193.727 36.5797 193.727 36.0266H192.902C192.902 36.3557 192.788 36.6314 192.545 36.8745L193.128 37.4579ZM191.697 38.0565C192.25 38.0565 192.734 37.852 193.128 37.4579L192.545 36.8745C192.302 37.1176 192.026 37.2315 191.697 37.2315V38.0565ZM190.265 37.4579C190.659 37.852 191.143 38.0565 191.697 38.0565V37.2315C191.367 37.2315 191.092 37.1176 190.849 36.8745L190.265 37.4579ZM189.666 36.0266C189.666 36.5797 189.871 37.0638 190.265 37.4579L190.849 36.8745C190.605 36.6314 190.491 36.3557 190.491 36.0266H189.666ZM190.265 34.5953C189.871 34.9894 189.666 35.4734 189.666 36.0266H190.491C190.491 35.6975 190.605 35.4218 190.849 35.1787L190.265 34.5953ZM191.697 33.9966C191.143 33.9966 190.659 34.2012 190.265 34.5953L190.849 35.1787C191.092 34.9356 191.367 34.8216 191.697 34.8216V33.9966ZM79.2902 36.4281C79.5535 36.4281 79.7457 36.5081 79.8984 36.6555L80.4714 36.0619C80.1501 35.7518 79.7459 35.6031 79.2902 35.6031V36.4281ZM78.675 36.6504C78.8138 36.5116 79.0046 36.4281 79.2902 36.4281V35.6031C78.8241 35.6031 78.4103 35.7484 78.0917 36.067L78.675 36.6504ZM78.4527 37.2655C78.4527 36.98 78.5361 36.7893 78.675 36.6504L78.0917 36.067C77.773 36.3857 77.6277 36.7994 77.6277 37.2655H78.4527ZM78.4527 46.6626V37.2655H77.6277V46.6626H78.4527ZM79.2924 49.9248C78.7343 48.954 78.4527 47.8697 78.4527 46.6626H77.6277C77.6277 48.0043 77.9425 49.2319 78.5772 50.336L79.2924 49.9248ZM81.5694 52.2249C80.611 51.6653 79.8534 50.9006 79.2924 49.9248L78.5772 50.336C79.209 51.4351 80.0692 52.3042 81.1534 52.9373L81.5694 52.2249ZM84.7806 53.0631C83.5906 53.0631 82.5235 52.782 81.5694 52.2249L81.1534 52.9373C82.2418 53.5729 83.4541 53.8881 84.7806 53.8881V53.0631ZM88.0188 52.2234C87.047 52.782 85.9706 53.0631 84.7806 53.0631V53.8881C86.1071 53.8881 87.3265 53.5729 88.4299 52.9387L88.0188 52.2234ZM90.3044 49.9269C89.7526 50.9 88.9927 51.6637 88.0188 52.2234L88.4299 52.9387C89.5313 52.3058 90.3973 51.4357 91.022 50.3339L90.3044 49.9269ZM91.1331 46.6626C91.1331 47.8707 90.855 48.9557 90.3044 49.9269L91.022 50.3339C91.6479 49.2301 91.9581 48.0033 91.9581 46.6626H91.1331ZM90.3597 43.3874C90.8731 44.3605 91.1331 45.4494 91.1331 46.6626H91.9581C91.9581 45.3271 91.6707 44.1042 91.0893 43.0024L90.3597 43.3874ZM88.2533 41.1078C89.1435 41.6555 89.8451 42.4121 90.3597 43.3874L91.0893 43.0024C90.5091 41.9027 89.7074 41.0338 88.6857 40.4051L88.2533 41.1078ZM85.2708 40.2867C86.3749 40.2867 87.3656 40.5616 88.2533 41.1078L88.6857 40.4051C87.6615 39.775 86.5198 39.4617 85.2708 39.4617V40.2867ZM82.8022 40.8342C83.5609 40.4701 84.382 40.2867 85.2708 40.2867V39.4617C84.2642 39.4617 83.3205 39.6704 82.4452 40.0905L82.8022 40.8342ZM80.8602 42.3648C81.3937 41.7094 82.0399 41.2001 82.8022 40.8342L82.4452 40.0905C81.5734 40.5089 80.8307 41.0942 80.2204 41.8439L80.8602 42.3648ZM80.1278 37.2655V42.1043H80.9528V37.2655H80.1278ZM79.8984 36.6555C80.0431 36.7953 80.1278 36.9844 80.1278 37.2655H80.9528C80.9528 36.795 80.8004 36.3796 80.4714 36.0619L79.8984 36.6555ZM84.7806 51.6825C85.6685 51.6825 86.4825 51.464 87.2123 51.0225L86.7854 50.3166C86.1917 50.6757 85.5268 50.8575 84.7806 50.8575V51.6825ZM82.3489 51.0225C83.0788 51.464 83.8928 51.6825 84.7806 51.6825V50.8575C84.0344 50.8575 83.3696 50.6757 82.7759 50.3166L82.3489 51.0225ZM80.6422 49.2099C81.0519 49.9757 81.6218 50.5827 82.3489 51.0225L82.7759 50.3166C82.1795 49.9558 81.7117 49.46 81.3697 48.8207L80.6422 49.2099ZM80.0297 46.6626C80.0297 47.5904 80.2317 48.4424 80.6422 49.2099L81.3697 48.8207C81.0286 48.1832 80.8547 47.4667 80.8547 46.6626H80.0297ZM80.6432 44.1259C80.2316 44.8862 80.0297 45.7349 80.0297 46.6626H80.8547C80.8547 45.8585 81.0286 45.1469 81.3687 44.5186L80.6432 44.1259ZM82.3489 42.3273C81.623 42.7664 81.0532 43.3684 80.6432 44.1259L81.3687 44.5186C81.7104 43.8873 82.1783 43.3947 82.7759 43.0332L82.3489 42.3273ZM84.7806 41.6673C83.8928 41.6673 83.0788 41.8858 82.3489 42.3273L82.7759 43.0332C83.3696 42.6741 84.0344 42.4923 84.7806 42.4923V41.6673ZM87.2123 42.3273C86.4825 41.8858 85.6685 41.6673 84.7806 41.6673V42.4923C85.5268 42.4923 86.1917 42.6741 86.7854 43.0332L87.2123 42.3273ZM88.9285 44.1226C88.5106 43.3668 87.9375 42.7659 87.2123 42.3273L86.7854 43.0332C87.3838 43.3952 87.8565 43.8889 88.2066 44.5218L88.9285 44.1226ZM89.556 46.6626C89.556 45.7334 89.3493 44.8835 88.9285 44.1226L88.2066 44.5218C88.5537 45.1496 88.731 45.86 88.731 46.6626H89.556ZM88.9295 49.2132C89.3493 48.4451 89.556 47.5919 89.556 46.6626H88.731C88.731 47.4652 88.5538 48.1805 88.2056 48.8175L88.9295 49.2132ZM87.2123 51.0225C87.9387 50.5832 88.5119 49.9773 88.9295 49.2132L88.2056 48.8175C87.8552 49.4585 87.3826 49.9554 86.7854 50.3166L87.2123 51.0225ZM94.8325 36.067C94.5174 36.382 94.3685 36.7854 94.3685 37.241H95.1935C95.1935 36.9776 95.2734 36.7929 95.4158 36.6504L94.8325 36.067ZM96.0066 35.6031C95.551 35.6031 95.1476 35.752 94.8325 36.067L95.4158 36.6504C95.5583 36.508 95.7431 36.4281 96.0066 36.4281V35.6031ZM97.1806 36.067C96.8655 35.752 96.4621 35.6031 96.0066 35.6031V36.4281C96.27 36.4281 96.4548 36.508 96.5973 36.6504L97.1806 36.067ZM97.6446 37.241C97.6446 36.7854 97.4957 36.382 97.1806 36.067L96.5973 36.6504C96.7397 36.7929 96.8196 36.9776 96.8196 37.241H97.6446ZM97.6446 48.8438V37.241H96.8196V48.8438H97.6446ZM97.9315 50.1308C97.7498 49.8194 97.6446 49.3987 97.6446 48.8438H96.8196C96.8196 49.4979 96.9431 50.0738 97.219 50.5466L97.9315 50.1308ZM98.4576 50.5144C98.2846 50.5144 98.1089 50.4348 97.9315 50.1308L97.219 50.5466C97.4991 51.0268 97.9117 51.3394 98.4576 51.3394V50.5144ZM99.0704 50.5144H98.4576V51.3394H99.0704V50.5144ZM100.175 50.9952C99.8865 50.6725 99.506 50.5144 99.0704 50.5144V51.3394C99.2884 51.3394 99.439 51.4099 99.5593 51.5447L100.175 50.9952ZM100.586 52.1522C100.586 51.7099 100.458 51.3123 100.175 50.9952L99.5593 51.5447C99.6847 51.6851 99.7609 51.8756 99.7609 52.1522H100.586ZM99.9524 53.3666C100.359 53.0667 100.586 52.6535 100.586 52.1522H99.7609C99.7609 52.3698 99.6769 52.5448 99.463 52.7024L99.9524 53.3666ZM98.5067 53.7901C99.0609 53.7901 99.5538 53.6602 99.9524 53.3666L99.463 52.7024C99.2406 52.8662 98.9329 52.9651 98.5067 52.9651V53.7901ZM98.4576 53.7901H98.5067V52.9651H98.4576V53.7901ZM96.3259 53.1426C96.9602 53.5746 97.6748 53.7901 98.4576 53.7901V52.9651C97.8352 52.9651 97.2834 52.7966 96.7903 52.4607L96.3259 53.1426ZM94.8702 51.3526C95.2081 52.1085 95.6918 52.7108 96.3259 53.1426L96.7903 52.4607C96.2968 52.1246 95.9063 51.6487 95.6233 51.0158L94.8702 51.3526ZM94.3685 48.8438C94.3685 49.7597 94.5329 50.5984 94.8702 51.3526L95.6233 51.0158C95.3396 50.3813 95.1935 49.6597 95.1935 48.8438H94.3685ZM94.3685 37.241V48.8438H95.1935V37.241H94.3685ZM107.968 40.2867C109.195 40.2867 110.279 40.5616 111.232 41.1029L111.64 40.3855C110.55 39.7668 109.323 39.4617 107.968 39.4617V40.2867ZM104.665 41.1036C105.627 40.562 106.724 40.2867 107.968 40.2867V39.4617C106.597 39.4617 105.358 39.7664 104.26 40.3848L104.665 41.1036ZM102.421 43.3585C102.956 42.396 103.702 41.6463 104.665 41.1036L104.26 40.3848C103.165 41.0021 102.309 41.8616 101.7 42.9578L102.421 43.3585ZM101.615 46.6871C101.615 45.425 101.887 44.3192 102.421 43.3585L101.7 42.9578C101.09 44.0557 100.79 45.3025 100.79 46.6871H101.615ZM102.421 49.9913C101.887 49.0298 101.615 47.932 101.615 46.6871H100.79C100.79 48.0564 101.091 49.2949 101.7 50.392L102.421 49.9913ZM104.665 52.2462C103.702 51.7035 102.956 50.9538 102.421 49.9913L101.7 50.392C102.309 51.4881 103.165 52.3477 104.26 52.965L104.665 52.2462ZM107.968 53.0631C106.724 53.0631 105.627 52.7878 104.665 52.2462L104.26 52.965C105.358 53.5834 106.597 53.8881 107.968 53.8881V53.0631ZM111.257 52.2469C110.305 52.7878 109.212 53.0631 107.968 53.0631V53.8881C109.338 53.8881 110.574 53.5834 111.664 52.9643L111.257 52.2469ZM113.49 49.9913C112.955 50.9546 112.212 51.7044 111.257 52.2469L111.664 52.9643C112.752 52.3468 113.602 51.4873 114.211 50.392L113.49 49.9913ZM114.296 46.6871C114.296 47.932 114.024 49.0298 113.49 49.9913L114.211 50.392C114.821 49.2949 115.121 48.0564 115.121 46.6871H114.296ZM113.479 43.3607C114.02 44.321 114.296 45.426 114.296 46.6871H115.121C115.121 45.3015 114.816 44.0539 114.198 42.9556L113.479 43.3607ZM111.232 41.1029C112.188 41.6457 112.935 42.3962 113.479 43.3607L114.198 42.9556C113.581 41.8615 112.727 41.0027 111.64 40.3855L111.232 41.1029ZM105.935 43.0229C106.528 42.6716 107.202 42.4923 107.968 42.4923V41.6673C107.067 41.6673 106.246 41.8802 105.515 42.3131L105.935 43.0229ZM104.532 44.5045C104.874 43.866 105.341 43.3752 105.935 43.0229L105.515 42.3131C104.786 42.7451 104.215 43.3489 103.805 44.1154L104.532 44.5045ZM104.017 46.6871C104.017 45.8654 104.192 45.141 104.532 44.5045L103.805 44.1154C103.394 44.884 103.192 45.7444 103.192 46.6871H104.017ZM104.531 48.8557C104.192 48.2285 104.017 47.509 104.017 46.6871H103.192C103.192 47.6298 103.394 48.4869 103.806 49.2484L104.531 48.8557ZM105.935 50.3269C105.34 49.9739 104.873 49.4862 104.531 48.8557L103.806 49.2484C104.216 50.0066 104.787 50.6055 105.515 51.0367L105.935 50.3269ZM107.968 50.8575C107.202 50.8575 106.528 50.6782 105.935 50.3269L105.515 51.0367C106.246 51.4696 107.067 51.6825 107.968 51.6825V50.8575ZM110 50.3269C109.407 50.6782 108.734 50.8575 107.968 50.8575V51.6825C108.869 51.6825 109.69 51.4696 110.421 51.0367L110 50.3269ZM111.39 48.859C111.057 49.4878 110.595 49.9744 110 50.3269L110.421 51.0367C111.149 50.605 111.717 50.0051 112.119 49.2451L111.39 48.859ZM111.894 46.6871C111.894 47.5105 111.723 48.2311 111.39 48.859L112.119 49.2451C112.522 48.4843 112.719 47.6283 112.719 46.6871H111.894ZM111.389 44.5012C111.723 45.1383 111.894 45.8639 111.894 46.6871H112.719C112.719 45.7459 112.522 44.8867 112.12 44.1187L111.389 44.5012ZM110 43.0229C110.594 43.3747 111.056 43.8644 111.389 44.5012L112.12 44.1187C111.718 43.3505 111.151 42.7455 110.421 42.3131L110 43.0229ZM107.968 42.4923C108.734 42.4923 109.407 42.6716 110 43.0229L110.421 42.3131C109.69 41.8802 108.869 41.6673 107.968 41.6673V42.4923ZM124.39 40.2867C126.197 40.2867 127.685 40.969 128.882 42.35L129.506 41.8096C128.154 40.2498 126.439 39.4617 124.39 39.4617V40.2867ZM121.163 41.1022C122.109 40.5611 123.181 40.2867 124.39 40.2867V39.4617C123.05 39.4617 121.835 39.7673 120.754 40.3862L121.163 41.1022ZM118.956 43.3673C119.483 42.3963 120.218 41.6437 121.163 41.1022L120.754 40.3862C119.673 41.0047 118.831 41.8695 118.231 42.9734L118.956 43.3673ZM118.16 46.6871C118.16 45.4414 118.428 44.3381 118.956 43.3673L118.231 42.9734C117.631 44.0776 117.335 45.3188 117.335 46.6871H118.16ZM118.978 49.9536C118.435 48.9821 118.16 47.8963 118.16 46.6871H117.335C117.335 48.0268 117.641 49.2528 118.258 50.3562L118.978 49.9536ZM121.237 52.2352C120.272 51.6843 119.521 50.9258 118.978 49.9536L118.258 50.3562C118.874 51.4589 119.733 52.326 120.827 52.9515L121.237 52.2352ZM124.513 53.0631C123.287 53.0631 122.198 52.7846 121.237 52.2352L120.827 52.9515C121.925 53.5784 123.156 53.8881 124.513 53.8881V53.0631ZM128.644 51.5316C127.551 52.548 126.184 53.0631 124.513 53.0631V53.8881C126.37 53.8881 127.945 53.3085 129.206 52.1356L128.644 51.5316ZM128.806 51.1719C128.806 51.2929 128.763 51.4121 128.633 51.5419L129.216 52.1253C129.479 51.863 129.631 51.5412 129.631 51.1719H128.806ZM128.487 50.6052C128.729 50.8089 128.806 50.9957 128.806 51.1719H129.631C129.631 50.6947 129.398 50.2933 129.019 49.9741L128.487 50.6052ZM128.116 50.4816C128.249 50.4816 128.375 50.5221 128.505 50.6197L129 49.9597C128.738 49.7631 128.44 49.6566 128.116 49.6566V50.4816ZM127.453 50.7443C127.715 50.5516 127.933 50.4816 128.116 50.4816V49.6566C127.71 49.6566 127.323 49.8154 126.964 50.0801L127.453 50.7443ZM124.513 51.6825C125.696 51.6825 126.696 51.3766 127.473 50.7291L126.945 50.0953C126.349 50.5915 125.552 50.8575 124.513 50.8575V51.6825ZM122.035 51.0367C122.767 51.4704 123.597 51.6825 124.513 51.6825V50.8575C123.729 50.8575 123.047 50.6775 122.456 50.3269L122.035 51.0367ZM120.337 49.2451C120.739 50.0051 121.306 50.605 122.035 51.0367L122.456 50.3269C121.861 49.9744 121.399 49.4878 121.066 48.8591L120.337 49.2451ZM119.737 46.6871C119.737 47.6283 119.934 48.4843 120.337 49.2451L121.066 48.8591C120.733 48.2311 120.562 47.5105 120.562 46.6871H119.737ZM121.024 43.0607C120.155 43.9937 119.737 45.2169 119.737 46.6871H120.562C120.562 45.3799 120.929 44.373 121.628 43.6232L121.024 43.0607ZM124.39 41.6673C123.029 41.6673 121.895 42.1272 121.024 43.0607L121.628 43.6232C122.326 42.8739 123.234 42.4923 124.39 42.4923V41.6673ZM126.205 42.0063C125.664 41.7769 125.056 41.6673 124.39 41.6673V42.4923C124.966 42.4923 125.461 42.5869 125.884 42.766L126.205 42.0063ZM127.683 43.0739C127.241 42.5963 126.749 42.2365 126.205 42.0063L125.884 42.766C126.304 42.9443 126.703 43.2298 127.078 43.6345L127.683 43.0739ZM128.336 43.3828C128.084 43.3828 127.876 43.2909 127.689 43.0801L127.072 43.6283C127.408 44.0057 127.836 44.2078 128.336 44.2078V43.3828ZM128.663 43.2858C128.574 43.3484 128.47 43.3828 128.336 43.3828V44.2078C128.627 44.2078 128.899 44.1278 129.137 43.9617L128.663 43.2858ZM129.027 42.717C129.027 42.9103 128.942 43.0963 128.668 43.2829L129.132 43.9646C129.578 43.6611 129.852 43.2426 129.852 42.717H129.027ZM128.889 42.3573C128.983 42.4604 129.027 42.5735 129.027 42.717H129.852C129.852 42.3703 129.732 42.0587 129.499 41.8023L128.889 42.3573ZM143.97 52.3483C143.97 51.9628 143.849 51.6147 143.592 51.3343L142.984 51.8918C143.086 52.0035 143.145 52.1456 143.145 52.3483H143.97ZM143.38 53.5719C143.762 53.2543 143.97 52.839 143.97 52.3483H143.145C143.145 52.5765 143.059 52.7656 142.852 52.9381L143.38 53.5719ZM142.332 53.9616C142.715 53.9616 143.066 53.8237 143.374 53.5772L142.859 52.9329C142.677 53.0785 142.504 53.1366 142.332 53.1366V53.9616ZM141.124 53.3613C141.428 53.7516 141.84 53.9616 142.332 53.9616V53.1366C142.105 53.1366 141.929 53.0526 141.775 52.8547L141.124 53.3613ZM136.472 47.6082L141.129 53.3674L141.77 52.8486L137.113 47.0895L136.472 47.6082ZM135.839 48.7368L137.065 47.6585L136.52 47.0391L135.294 48.1175L135.839 48.7368ZM135.979 52.1767V48.4271H135.154V52.1767H135.979ZM135.528 53.3384C135.838 53.0286 135.979 52.6275 135.979 52.1767H135.154C135.154 52.4448 135.076 52.6237 134.944 52.755L135.528 53.3384ZM134.366 53.7901C134.817 53.7901 135.218 53.6482 135.528 53.3384L134.944 52.755C134.813 52.8863 134.634 52.9651 134.366 52.9651V53.7901ZM133.204 53.3384C133.514 53.6482 133.915 53.7901 134.366 53.7901V52.9651C134.098 52.9651 133.919 52.8863 133.787 52.755L133.204 53.3384ZM132.752 52.1767C132.752 52.6275 132.894 53.0286 133.204 53.3384L133.787 52.755C133.656 52.6237 133.577 52.4448 133.577 52.1767H132.752ZM132.752 37.2165V52.1767H133.577V37.2165H132.752ZM133.204 36.0548C132.894 36.3646 132.752 36.7657 132.752 37.2165H133.577C133.577 36.9484 133.656 36.7695 133.787 36.6382L133.204 36.0548ZM134.366 35.6031C133.915 35.6031 133.514 35.745 133.204 36.0548L133.787 36.6382C133.919 36.5069 134.098 36.4281 134.366 36.4281V35.6031ZM135.528 36.0548C135.218 35.745 134.817 35.6031 134.366 35.6031V36.4281C134.634 36.4281 134.813 36.5069 134.944 36.6382L135.528 36.0548ZM135.979 37.2165C135.979 36.7657 135.838 36.3646 135.528 36.0548L134.944 36.6382C135.076 36.7695 135.154 36.9484 135.154 37.2165H135.979ZM135.979 45.4128V37.2165H135.154V45.4128H135.979ZM141.248 39.7871L135.292 45.1051L135.842 45.7205L141.798 40.4025L141.248 39.7871ZM142.283 39.3637C141.877 39.3637 141.519 39.5152 141.231 39.803L141.815 40.3865C141.952 40.2496 142.101 40.1887 142.283 40.1887V39.3637ZM143.436 39.9081C143.144 39.5483 142.748 39.3637 142.283 39.3637V40.1887C142.505 40.1887 142.664 40.2655 142.796 40.4284L143.436 39.9081ZM143.847 40.928C143.847 40.5219 143.696 40.1645 143.408 39.8766L142.825 40.46C142.962 40.5969 143.022 40.7459 143.022 40.928H143.847ZM143.303 42.0814C143.663 41.789 143.847 41.3926 143.847 40.928H143.022C143.022 41.1495 142.946 41.3087 142.783 41.4411L143.303 42.0814ZM138.807 46.0883L143.317 42.0692L142.768 41.4533L138.258 45.4724L138.807 46.0883ZM143.608 51.3524L138.852 45.5197L138.213 46.041L142.968 51.8737L143.608 51.3524ZM153.778 40.2622C154.844 40.2622 155.788 40.4932 156.62 40.947L157.015 40.2227C156.05 39.6963 154.968 39.4372 153.778 39.4372V40.2622ZM151.627 40.6619C152.295 40.3963 153.011 40.2622 153.778 40.2622V39.4372C152.912 39.4372 152.092 39.589 151.322 39.8953L151.627 40.6619ZM149.903 41.7834C150.385 41.3021 150.958 40.928 151.627 40.6619L151.322 39.8953C150.553 40.2009 149.884 40.6356 149.32 41.2L149.903 41.7834ZM149.199 41.2221V41.4917H150.024V41.2221H149.199ZM148.977 40.607C149.116 40.7459 149.199 40.9366 149.199 41.2221H150.024C150.024 40.756 149.879 40.3422 149.56 40.0236L148.977 40.607ZM148.362 40.3847C148.647 40.3847 148.838 40.4682 148.977 40.607L149.56 40.0236C149.241 39.705 148.828 39.5597 148.362 39.5597V40.3847ZM147.753 40.6121C147.906 40.4647 148.098 40.3847 148.362 40.3847V39.5597C147.906 39.5597 147.502 39.7084 147.18 40.0185L147.753 40.6121ZM147.524 41.2221C147.524 40.941 147.609 40.7519 147.753 40.6121L147.18 40.0185C146.851 40.3362 146.699 40.7516 146.699 41.2221H147.524ZM147.524 52.1522V41.2221H146.699V52.1522H147.524ZM147.759 52.755C147.605 52.6015 147.524 52.4111 147.524 52.1522H146.699C146.699 52.6123 146.855 53.0182 147.175 53.3384L147.759 52.755ZM148.362 52.9896C148.103 52.9896 147.912 52.9086 147.759 52.755L147.175 53.3384C147.496 53.6587 147.902 53.8146 148.362 53.8146V52.9896ZM148.972 52.7602C148.832 52.905 148.643 52.9896 148.362 52.9896V53.8146C148.832 53.8146 149.247 53.6623 149.565 53.3333L148.972 52.7602ZM149.199 52.1522C149.199 52.4155 149.119 52.6076 148.972 52.7602L149.565 53.3333C149.875 53.0121 150.024 52.6079 150.024 52.1522H149.199ZM149.199 45.2412V52.1522H150.024V45.2412H149.199ZM149.747 43.4181C149.381 43.9621 149.199 44.5737 149.199 45.2412H150.024C150.024 44.7324 150.16 44.2821 150.432 43.8785L149.747 43.4181ZM151.231 42.1509C150.609 42.4572 150.11 42.8786 149.747 43.4181L150.432 43.8785C150.706 43.4703 151.09 43.1402 151.595 42.891L151.231 42.1509ZM153.288 41.6918C152.545 41.6918 151.856 41.8427 151.231 42.1509L151.595 42.891C152.097 42.6437 152.659 42.5168 153.288 42.5168V41.6918ZM156.404 42.8229C155.602 42.0576 154.548 41.6918 153.288 41.6918V42.5168C154.381 42.5168 155.215 42.8291 155.835 43.4199L156.404 42.8229ZM157.598 46.1235C157.598 44.7279 157.222 43.6029 156.404 42.8229L155.835 43.4199C156.438 43.9959 156.773 44.8723 156.773 46.1235H157.598ZM157.598 52.1522V46.1235H156.773V52.1522H157.598ZM157.833 52.755C157.679 52.6015 157.598 52.4111 157.598 52.1522H156.773C156.773 52.6123 156.929 53.0182 157.249 53.3384L157.833 52.755ZM158.435 52.9896C158.177 52.9896 157.986 52.9086 157.833 52.755L157.249 53.3384C157.57 53.6587 157.975 53.8146 158.435 53.8146V52.9896ZM159.038 52.755C158.885 52.9086 158.694 52.9896 158.435 52.9896V53.8146C158.896 53.8146 159.301 53.6587 159.622 53.3384L159.038 52.755ZM159.273 52.1522C159.273 52.4111 159.192 52.6015 159.038 52.755L159.622 53.3384C159.942 53.0181 160.098 52.6123 160.098 52.1522H159.273ZM159.273 46.1235V52.1522H160.098V46.1235H159.273ZM158.563 42.925C159.03 43.7915 159.273 44.8523 159.273 46.1235H160.098C160.098 44.7479 159.835 43.5459 159.289 42.5335L158.563 42.925ZM156.62 40.947C157.446 41.3972 158.092 42.0528 158.563 42.925L159.289 42.5335C158.746 41.5269 157.987 40.7528 157.015 40.2227L156.62 40.947ZM173.534 40.4125C172.445 39.7769 171.233 39.4617 169.907 39.4617V40.2867C171.097 40.2867 172.164 40.5678 173.118 41.1249L173.534 40.4125ZM176.11 43.0138C175.478 41.9147 174.618 41.0456 173.534 40.4125L173.118 41.1249C174.076 41.6845 174.834 42.4491 175.395 43.425L176.11 43.0138ZM177.059 46.6871C177.059 45.3455 176.745 44.1179 176.11 43.0138L175.395 43.425C175.953 44.3958 176.234 45.4801 176.234 46.6871H177.059ZM177.059 52.1522V46.6871H176.234V52.1522H177.059ZM176.583 53.3384C176.904 53.0182 177.059 52.6123 177.059 52.1522H176.234C176.234 52.4111 176.153 52.6015 176 52.755L176.583 53.3384ZM175.397 53.8146C175.857 53.8146 176.263 53.6587 176.583 53.3384L176 52.755C175.846 52.9086 175.656 52.9896 175.397 52.9896V53.8146ZM174.211 53.3384C174.531 53.6587 174.937 53.8146 175.397 53.8146V52.9896C175.138 52.9896 174.948 52.9086 174.794 52.755L174.211 53.3384ZM173.734 52.1522C173.734 52.6123 173.89 53.0182 174.211 53.3384L174.794 52.755C174.64 52.6015 174.559 52.4111 174.559 52.1522H173.734ZM173.734 51.2455V52.1522H174.559V51.2455H173.734ZM172.242 53.2593C173.114 52.8409 173.856 52.2556 174.467 51.5059L173.827 50.985C173.293 51.6404 172.647 52.1497 171.885 52.5155L172.242 53.2593ZM169.416 53.8881C170.423 53.8881 171.367 53.6794 172.242 53.2593L171.885 52.5155C171.126 52.8797 170.305 53.0631 169.416 53.0631V53.8881ZM166.001 52.9447C167.026 53.5748 168.167 53.8881 169.416 53.8881V53.0631C168.312 53.0631 167.322 52.7882 166.434 52.242L166.001 52.9447ZM163.598 50.3474C164.178 51.4471 164.98 52.316 166.001 52.9447L166.434 52.242C165.544 51.6943 164.842 50.9377 164.327 49.9624L163.598 50.3474ZM162.729 46.6871C162.729 48.0227 163.016 49.2456 163.598 50.3474L164.327 49.9624C163.814 48.9893 163.554 47.9004 163.554 46.6871H162.729ZM163.665 43.0159C163.039 44.1197 162.729 45.3465 162.729 46.6871H163.554C163.554 45.479 163.832 44.394 164.383 43.4229L163.665 43.0159ZM166.257 40.4111C165.156 41.044 164.29 41.9141 163.665 43.0159L164.383 43.4229C164.935 42.4498 165.694 41.6861 166.668 41.1263L166.257 40.4111ZM169.907 39.4617C168.58 39.4617 167.361 39.7769 166.257 40.4111L166.668 41.1263C167.64 40.5678 168.717 40.2867 169.907 40.2867V39.4617ZM169.907 51.6825C170.794 51.6825 171.608 51.464 172.338 51.0225L171.911 50.3166C171.318 50.6757 170.653 50.8575 169.907 50.8575V51.6825ZM167.475 51.0225C168.205 51.464 169.019 51.6825 169.907 51.6825V50.8575C169.16 50.8575 168.495 50.6757 167.902 50.3166L167.475 51.0225ZM165.759 49.2272C166.177 49.983 166.75 50.5839 167.475 51.0225L167.902 50.3166C167.303 49.9546 166.831 49.4609 166.481 48.8279L165.759 49.2272ZM165.131 46.6871C165.131 47.6164 165.338 48.4662 165.759 49.2272L166.481 48.8279C166.133 48.2002 165.956 47.4898 165.956 46.6871H165.131ZM165.758 44.1366C165.338 44.9047 165.131 45.7579 165.131 46.6871H165.956C165.956 45.8846 166.133 45.1693 166.482 44.5323L165.758 44.1366ZM167.475 42.3273C166.748 42.7666 166.175 43.3725 165.758 44.1366L166.482 44.5323C166.832 43.8913 167.305 43.3944 167.902 43.0332L167.475 42.3273ZM169.907 41.6673C169.019 41.6673 168.205 41.8858 167.475 42.3273L167.902 43.0332C168.495 42.6741 169.16 42.4923 169.907 42.4923V41.6673ZM172.338 42.3273C171.608 41.8858 170.794 41.6673 169.907 41.6673V42.4923C170.653 42.4923 171.318 42.6741 171.911 43.0332L172.338 42.3273ZM174.045 44.1399C173.635 43.3741 173.065 42.7671 172.338 42.3273L171.911 43.0332C172.508 43.394 172.975 43.8898 173.317 44.529L174.045 44.1399ZM174.657 46.6871C174.657 45.7594 174.455 44.9074 174.045 44.1399L173.317 44.5291C173.659 45.1666 173.832 45.8831 173.832 46.6871H174.657ZM174.044 49.2239C174.456 48.4636 174.657 47.6149 174.657 46.6871H173.832C173.832 47.4913 173.659 48.2028 173.318 48.8312L174.044 49.2239ZM172.338 51.0225C173.064 50.5834 173.634 49.9814 174.044 49.2239L173.318 48.8312C172.977 49.4624 172.509 49.9551 171.911 50.3166L172.338 51.0225ZM187.139 50.9952C186.86 50.6831 186.501 50.5144 186.084 50.5144V51.3394C186.255 51.3394 186.394 51.3994 186.524 51.5447L187.139 50.9952ZM187.55 52.1522C187.55 51.7099 187.422 51.3123 187.139 50.9952L186.524 51.5447C186.649 51.6851 186.725 51.8756 186.725 52.1522H187.55ZM187 53.349C187.364 53.0404 187.55 52.6305 187.55 52.1522H186.725C186.725 52.3928 186.642 52.571 186.466 52.7199L187 53.349ZM185.691 53.7901C186.193 53.7901 186.642 53.6531 187 53.349L186.466 52.7199C186.286 52.8733 186.039 52.9651 185.691 52.9651V53.7901ZM185.25 53.7901H185.691V52.9651H185.25V53.7901ZM182.837 53.1017C183.566 53.5608 184.374 53.7901 185.25 53.7901V52.9651C184.525 52.9651 183.871 52.7777 183.276 52.4036L182.837 53.1017ZM181.135 51.2405C181.543 52.0215 182.111 52.6448 182.837 53.1017L183.276 52.4036C182.679 52.0273 182.209 51.5151 181.866 50.8583L181.135 51.2405ZM180.524 48.6232C180.524 49.5811 180.725 50.4565 181.135 51.2405L181.866 50.8583C181.524 50.2045 181.349 49.4625 181.349 48.6232H180.524ZM180.524 42.0798V48.6232H181.349V42.0798H180.524ZM179.809 42.4923H180.936V41.6673H179.809V42.4923ZM178.696 42.0889C178.998 42.3681 179.383 42.4923 179.809 42.4923V41.6673C179.549 41.6673 179.378 41.5955 179.255 41.4826L178.696 42.0889ZM178.244 41.0505C178.244 41.4575 178.397 41.8132 178.696 42.0889L179.255 41.4826C179.129 41.3662 179.069 41.2317 179.069 41.0505H178.244ZM178.696 39.9632C178.387 40.2479 178.244 40.6252 178.244 41.0505H179.069C179.069 40.8223 179.139 40.6768 179.255 40.5694L178.696 39.9632ZM179.809 39.5597C179.383 39.5597 178.998 39.684 178.696 39.9632L179.255 40.5694C179.378 40.4565 179.549 40.3847 179.809 40.3847V39.5597ZM180.936 39.5597H179.809V40.3847H180.936V39.5597ZM180.524 37.241V39.9722H181.349V37.241H180.524ZM180.988 36.067C180.673 36.382 180.524 36.7854 180.524 37.241H181.349C181.349 36.9776 181.429 36.7929 181.571 36.6504L180.988 36.067ZM182.162 35.6031C181.706 35.6031 181.303 35.752 180.988 36.067L181.571 36.6504C181.714 36.508 181.898 36.4281 182.162 36.4281V35.6031ZM183.336 36.067C183.021 35.752 182.617 35.6031 182.162 35.6031V36.4281C182.425 36.4281 182.61 36.508 182.753 36.6504L183.336 36.067ZM183.8 37.241C183.8 36.7854 183.651 36.382 183.336 36.067L182.753 36.6504C182.895 36.7929 182.975 36.9776 182.975 37.241H183.8ZM183.8 39.9722V37.241H182.975V39.9722H183.8ZM185.471 39.5597H183.387V40.3847H185.471V39.5597ZM186.584 39.9632C186.281 39.684 185.897 39.5597 185.471 39.5597V40.3847C185.731 40.3847 185.902 40.4565 186.024 40.5694L186.584 39.9632ZM187.035 41.0505C187.035 40.6252 186.892 40.2479 186.584 39.9632L186.024 40.5694C186.141 40.6768 186.21 40.8223 186.21 41.0505H187.035ZM186.584 42.0889C186.883 41.8132 187.035 41.4575 187.035 41.0505H186.21C186.21 41.2317 186.151 41.3662 186.024 41.4826L186.584 42.0889ZM185.471 42.4923C185.897 42.4923 186.281 42.3681 186.584 42.0889L186.024 41.4826C185.902 41.5955 185.731 41.6673 185.471 41.6673V42.4923ZM183.387 42.4923H185.471V41.6673H183.387V42.4923ZM183.8 48.6232V42.0798H182.975V48.6232H183.8ZM184.246 50.0046C183.956 49.6478 183.8 49.1966 183.8 48.6232H182.975C182.975 49.3568 183.179 50.0003 183.607 50.5258L184.246 50.0046ZM185.25 50.5144C184.863 50.5144 184.535 50.3593 184.246 50.0046L183.607 50.5258C184.037 51.0533 184.591 51.3394 185.25 51.3394V50.5144ZM186.084 50.5144H185.25V51.3394H186.084V50.5144ZM190.859 41.2221C190.859 40.941 190.944 40.7519 191.088 40.6121L190.515 40.0185C190.186 40.3362 190.034 40.7516 190.034 41.2221H190.859ZM190.859 52.1277V41.2221H190.034V52.1277H190.859ZM191.094 52.7305C190.94 52.577 190.859 52.3865 190.859 52.1277H190.034C190.034 52.5878 190.19 52.9936 190.51 53.3139L191.094 52.7305ZM191.697 52.9651C191.438 52.9651 191.247 52.884 191.094 52.7305L190.51 53.3139C190.831 53.6342 191.237 53.7901 191.697 53.7901V52.9651ZM192.307 52.7357C192.167 52.8805 191.978 52.9651 191.697 52.9651V53.7901C192.167 53.7901 192.582 53.6378 192.9 53.3088L192.307 52.7357ZM192.534 52.1277C192.534 52.3909 192.454 52.583 192.307 52.7357L192.9 53.3088C193.21 52.9876 193.359 52.5834 193.359 52.1277H192.534ZM192.534 41.2221V52.1277H193.359V41.2221H192.534ZM192.312 40.607C192.451 40.7458 192.534 40.9366 192.534 41.2221H193.359C193.359 40.756 193.214 40.3423 192.895 40.0236L192.312 40.607ZM191.697 40.3847C191.982 40.3847 192.173 40.4682 192.312 40.607L192.895 40.0236C192.576 39.705 192.163 39.5597 191.697 39.5597V40.3847ZM191.088 40.6121C191.241 40.4647 191.433 40.3847 191.697 40.3847V39.5597C191.241 39.5597 190.837 39.7084 190.515 40.0185L191.088 40.6121ZM207.75 40.5183C207.903 40.5888 208.003 40.677 208.07 40.777L208.756 40.3193C208.594 40.0762 208.368 39.8948 208.096 39.7692L207.75 40.5183ZM207.359 40.4337C207.518 40.4337 207.641 40.464 207.738 40.5127L208.107 39.7748C207.878 39.6602 207.625 39.6087 207.359 39.6087V40.4337ZM206.961 40.5396C207.088 40.4679 207.219 40.4337 207.359 40.4337V39.6087C207.074 39.6087 206.804 39.6808 206.556 39.8214L206.961 40.5396ZM206.698 40.8184C206.76 40.6946 206.846 40.6048 206.961 40.5397L206.556 39.8214C206.295 39.9687 206.095 40.1811 205.961 40.4494L206.698 40.8184ZM202.489 49.996L206.704 40.8059L205.955 40.4619L201.739 49.6521L202.489 49.996ZM197.475 40.8076L201.74 49.9977L202.488 49.6504L198.223 40.4603L197.475 40.8076ZM197.222 40.5357C197.33 40.5994 197.415 40.6896 197.48 40.8184L198.218 40.4494C198.086 40.1861 197.894 39.974 197.642 39.8254L197.222 40.5357ZM196.868 40.4337C196.986 40.4337 197.102 40.4645 197.222 40.5357L197.642 39.8254C197.403 39.6842 197.143 39.6087 196.868 39.6087V40.4337ZM196.554 40.5044C196.63 40.462 196.731 40.4337 196.868 40.4337V39.6087C196.614 39.6087 196.371 39.6622 196.153 39.7832L196.554 40.5044ZM196.08 41.1486C196.08 41.0034 196.116 40.8921 196.18 40.7992C196.245 40.7029 196.356 40.6038 196.538 40.5127L196.169 39.7748C195.894 39.9125 195.661 40.0952 195.498 40.3339C195.333 40.5759 195.255 40.8526 195.255 41.1486H196.08ZM196.134 41.4052C196.101 41.3382 196.08 41.2555 196.08 41.1486H195.255C195.255 41.3684 195.299 41.5797 195.396 41.7742L196.134 41.4052ZM201.334 52.3675L196.138 41.4129L195.393 41.7665L200.589 52.7211L201.334 52.3675ZM201.684 52.8284C201.585 52.7607 201.461 52.6206 201.331 52.3598L200.593 52.7288C200.756 53.0562 200.959 53.3327 201.22 53.5101L201.684 52.8284ZM202.138 52.9406C201.92 52.9406 201.779 52.8929 201.684 52.8284L201.22 53.5101C201.485 53.6907 201.8 53.7656 202.138 53.7656V52.9406ZM202.89 52.3736C202.789 52.5956 202.675 52.7332 202.56 52.8157C202.448 52.8954 202.314 52.9406 202.138 52.9406V53.7656C202.469 53.7656 202.776 53.6759 203.04 53.4861C203.301 53.299 203.497 53.0323 203.641 52.715L202.89 52.3736ZM208.089 41.4129L202.893 52.3675L203.638 52.7211L208.835 41.7665L208.089 41.4129ZM208.172 41.124C208.172 41.1934 208.153 41.2855 208.093 41.4052L208.831 41.7742C208.934 41.5671 208.997 41.3488 208.997 41.124H208.172ZM208.07 40.777C208.138 40.8786 208.172 40.9905 208.172 41.124H208.997C208.997 40.8328 208.917 40.5607 208.756 40.3193L208.07 40.777ZM222.547 47.5359C222.845 47.2494 222.993 46.8825 222.993 46.4666H222.168C222.168 46.6715 222.102 46.8193 221.976 46.9412L222.547 47.5359ZM221.453 47.9574C221.873 47.9574 222.249 47.8224 222.547 47.5359L221.976 46.9412C221.849 47.0632 221.686 47.1324 221.453 47.1324V47.9574ZM212.139 47.9574H221.453V47.1324H212.139V47.9574ZM213.956 49.9951C213.181 49.3597 212.711 48.5293 212.546 47.4808L211.731 47.6089C211.926 48.8479 212.494 49.8636 213.434 50.6333L213.956 49.9951ZM216.845 50.9555C215.686 50.9555 214.732 50.63 213.956 49.9951L213.434 50.6333C214.374 51.4035 215.52 51.7805 216.845 51.7805V50.9555ZM218.244 50.7077C217.75 50.875 217.284 50.9555 216.845 50.9555V51.7805C217.386 51.7805 217.941 51.6812 218.509 51.4891L218.244 50.7077ZM219.438 50.1086C219.139 50.3362 218.745 50.5382 218.244 50.7077L218.509 51.4892C219.07 51.2991 219.55 51.0601 219.938 50.7649L219.438 50.1086ZM220.497 49.7546C220.101 49.7546 219.74 49.8716 219.433 50.1123L219.943 50.7611C220.094 50.6425 220.272 50.5796 220.497 50.5796V49.7546ZM221.51 50.107C221.235 49.857 220.88 49.7546 220.497 49.7546V50.5796C220.734 50.5796 220.87 50.6407 220.955 50.7175L221.51 50.107ZM222.086 51.2455C222.086 50.7845 221.86 50.3988 221.496 50.0953L220.968 50.7291C221.192 50.9158 221.261 51.0856 221.261 51.2455H222.086ZM221.529 52.3107C221.881 52.0467 222.086 51.6852 222.086 51.2455H221.261C221.261 51.3939 221.204 51.5225 221.034 51.6506L221.529 52.3107ZM219.342 53.4499C220.202 53.1603 220.937 52.7804 221.538 52.3037L221.025 51.6576C220.514 52.0632 219.868 52.4022 219.078 52.668L219.342 53.4499ZM216.845 53.8881C217.648 53.8881 218.481 53.7397 219.342 53.4499L219.078 52.668C218.289 52.9337 217.545 53.0631 216.845 53.0631V53.8881ZM213.044 52.9676C214.173 53.5842 215.443 53.8881 216.845 53.8881V53.0631C215.566 53.0631 214.434 52.787 213.439 52.2436L213.044 52.9676ZM210.397 50.3985C211.032 51.4943 211.917 52.3521 213.044 52.9676L213.439 52.2436C212.442 51.6991 211.669 50.9476 211.111 49.9848L210.397 50.3985ZM209.447 46.6871C209.447 48.0595 209.76 49.3002 210.397 50.3985L211.111 49.9848C210.554 49.0245 210.272 47.9289 210.272 46.6871H209.447ZM210.342 42.9734C209.742 44.0776 209.447 45.3188 209.447 46.6871H210.272C210.272 45.4414 210.54 44.3381 211.067 43.3673L210.342 42.9734ZM212.852 40.3869C211.78 41.0056 210.942 41.8704 210.342 42.9734L211.067 43.3673C211.595 42.3954 212.326 41.6427 213.264 41.1015L212.852 40.3869ZM216.477 39.4617C215.137 39.4617 213.925 39.7672 212.852 40.3869L213.264 41.1015C214.2 40.5611 215.267 40.2867 216.477 40.2867V39.4617ZM219.951 40.3548C218.961 39.7537 217.797 39.4617 216.477 39.4617V40.2867C217.673 40.2867 218.683 40.5501 219.523 41.06L219.951 40.3548ZM222.215 42.8535C221.691 41.7891 220.936 40.9527 219.951 40.3548L219.523 41.06C220.368 41.5731 221.018 42.2888 221.475 43.2177L222.215 42.8535ZM222.993 46.4666C222.993 45.123 222.737 43.9153 222.215 42.8535L221.475 43.2177C221.933 44.1491 222.168 45.2288 222.168 46.4666H222.993ZM216.477 41.5693C215.205 41.5693 214.134 41.9196 213.3 42.6523L213.845 43.2719C214.498 42.6975 215.363 42.3943 216.477 42.3943V41.5693ZM219.388 42.6668C218.629 41.9266 217.645 41.5693 216.477 41.5693V42.3943C217.466 42.3943 218.23 42.6905 218.812 43.2574L219.388 42.6668ZM220.734 45.5294C220.577 44.3605 220.135 43.3958 219.388 42.6668L218.812 43.2574C219.404 43.8354 219.779 44.6189 219.916 45.6393L220.734 45.5294ZM212.163 45.9968H220.325V45.1718H212.163V45.9968ZM213.3 42.6523C212.478 43.375 211.967 44.337 211.757 45.5116L212.569 45.6571C212.751 44.6423 213.18 43.8562 213.845 43.2719L213.3 42.6523Z" fill="#1A1D26"/>
<path fill-rule="evenodd" clip-rule="evenodd" d="M16.0001 50.4542C16 50.4439 16 50.4335 16.0001 50.4231V23.0715C16.0001 22.4227 16.3454 21.8229 16.9063 21.497L39.7129 8.24646C40.2785 7.91785 40.9769 7.91785 41.5425 8.24645L52.4445 14.5803C53.009 14.9083 53.3547 15.5133 53.3507 16.166L53.2715 29.0938L63.9339 35.4802C64.4949 35.8062 64.8401 36.406 64.8401 37.0548V63.5672C64.8401 64.216 64.4949 64.8158 63.9339 65.1417L41.4582 78.3913C40.8918 78.7204 40.1922 78.7198 39.6262 78.3898L16.9039 65.1413C16.3443 64.815 16.0001 64.216 16.0001 63.5682L16.0001 50.4542ZM53.0217 55.7454L63.5201 49.7695V37.0548C63.5201 36.9939 63.4877 36.9375 63.4351 36.9069L52.0292 30.2803C52.0216 30.2759 52.014 30.2714 52.0066 30.2667L41.6853 35.9542L53.0217 42.6685V55.7454ZM27.8801 57.5871V69.6312L17.735 63.7159C17.7166 63.7052 17.6601 63.6913 17.5945 63.6752C17.473 63.6453 17.3201 63.6077 17.3201 63.5682V51.663L27.8801 57.5871ZM40.4573 76.9644L29.2001 70.4008V58.3276L39.6953 64.2152C40.2522 64.5277 40.9321 64.5255 41.4871 64.2097L63.5201 51.6681V63.5672C63.5201 63.6281 63.4877 63.6844 63.4351 63.715L40.6294 76.9646C40.5762 76.9955 40.5105 76.9954 40.4573 76.9644ZM51.7017 43.4209V56.4967L40.6708 62.7757C40.6187 62.8053 40.5549 62.8055 40.5026 62.7762L17.3201 49.7711V37.459L28.5517 43.1914L40.3434 36.6936L51.7017 43.4209ZM51.7008 16.1559L51.6246 28.5933L28.5221 41.3238L17.3201 35.6065V23.0715C17.3201 23.0106 17.3526 22.9543 17.4052 22.9237L40.5418 9.67314C40.5949 9.64229 40.6605 9.64229 40.7136 9.67314L51.6157 16.007C51.6687 16.0378 51.7011 16.0946 51.7008 16.1559Z" fill="#1A1D26"/>
</svg>